<?xml version="1.0" encoding="utf-8"?>
<!-- Generator: Adobe Illustrator 23.0.1, SVG Export Plug-In . SVG Version: 6.00 Build 0)  -->
<svg version="1.1" id="Capa_1" xmlns="http://www.w3.org/2000/svg" xmlns:xlink="http://www.w3.org/1999/xlink" x="0px" y="0px"
	 viewBox="0 0 566.9 566.9" style="enable-background:new 0 0 566.9 566.9;" xml:space="preserve">
<style type="text/css">
	.st0{display:none;}
	.st1{display:inline;}
</style>
<g class="st0">
	<path class="st1" d="M288.7,255.7c1.1-20.9-7-35.9-13.2-45.4c-6.5-9.8-24.3-29-53-57c-12.6-12.3-29.3-19.1-46.9-19.1c0,0,0,0,0,0
		c-17.6,0-34.3,6.8-46.9,19.1c-28.6,27.9-46.4,47.1-52.9,57c-6.7,10.3-14.3,24.7-13.2,45.3c0.9,16.3,7.8,31.7,19.5,43.2
		c11.9,11.7,27.4,18.2,43.7,18.2c18.9,0,34.9-11.3,45-20.8c2.7-2.5,6.8-2.5,9.5,0.1c14.2,13.5,29.9,20.7,45.4,20.7
		c16.3,0,31.8-6.4,43.7-18.2C280.9,287.3,287.8,272,288.7,255.7z M268.7,254.6c-1.3,23.4-20.6,42.4-43.2,42.4
		c-13,0-24.3-8.2-31.6-15.2c-5.2-5-11.9-7.5-18.6-7.5c-6.6,0-13.2,2.4-18.4,7.3c-7.5,7-19,15.4-31.4,15.4c-22.6,0-42-19-43.2-42.4
		c-0.6-11.7,2.4-21.7,10-33.3c3.2-4.9,14-18.3,50.1-53.6c18.2-17.8,47.8-17.8,65.9,0c36.3,35.4,47.1,48.8,50.3,53.7
		C266.3,232.9,269.3,242.8,268.7,254.6z"/>
	<path class="st1" d="M137,201.4c-21.2,21.6-26.7,29.1-27.9,30.9c-5.3,8-7.1,13.8-6.7,21.2c0.7,12.8,11,23.3,23,23.5
		c0,0,0.1,0,0.1,0c5.5,0,9.9-4.4,10-9.9c0.1-5.5-4.4-10-9.9-10.1c-1.1,0-3.1-1.9-3.3-4.5c-0.1-1.9-0.2-3.6,3.4-9.2
		c0.2-0.3,4.5-6.6,25.5-27.9c3.9-3.9,3.8-10.3-0.1-14.1C147.2,197.4,140.8,197.4,137,201.4z"/>
	<path class="st1" d="M214.6,202c-3.9-3.9-10.2-4-14.1-0.2c-3.9,3.9-4,10.2-0.2,14.1c18.8,19.2,24.6,26.8,25.1,27.5
		c3.5,5.4,3.5,7.1,3.3,9c-0.1,2.6-2.2,4.5-3.3,4.5c-5.5,0-10,4.5-10,10c0,5.5,4.5,10,10,10c12.1,0,22.5-10.5,23.2-23.5
		c0.4-7.3-1.5-13.3-6.7-21.2C240.4,229.8,232.5,220.3,214.6,202z"/>
	<path class="st1" d="M130.6,135.4c23.6,0,42.8-24.2,42.8-54c0-29.8-19.2-54-42.8-54c-23.6,0-42.8,24.2-42.8,54
		C87.8,111.2,107,135.4,130.6,135.4z M130.6,47.5c12.3,0,22.8,15.6,22.8,34c0,18.4-10.4,34-22.8,34c-12.3,0-22.8-15.6-22.8-34
		S118.3,47.5,130.6,47.5z"/>
	<path class="st1" d="M220.5,135.4c23.6,0,42.8-24.2,42.8-54s-19.2-54-42.8-54c-23.6,0-42.8,24.2-42.8,54
		C177.7,111.2,196.9,135.4,220.5,135.4z M220.5,47.5c12.3,0,22.8,15.6,22.8,34c0,18.4-10.4,34-22.8,34c-12.3,0-22.8-15.6-22.8-34
		S208.1,47.5,220.5,47.5z"/>
	<path class="st1" d="M255.7,168.2c4.9,10.1,13.1,16.7,23.1,18.7c2,0.4,4,0.6,6,0.6c8,0,15.8-3.1,22.5-9.1
		c7.6-6.8,13-16.7,15.2-27.9c4.8-24.3-6.9-46.4-26.6-50.3c-10-2-20.1,1.1-28.5,8.5c-7.6,6.8-13,16.7-15.2,27.9
		C250,147.8,251.3,159,255.7,168.2z M271.9,140.5c1.4-7,4.5-13,8.9-16.9c2.2-1.9,5.4-4,9.2-4c0.7,0,1.4,0.1,2.1,0.2h0
		c8.6,1.7,13.4,13.7,10.8,26.8c-1.4,7-4.5,13-8.9,16.8c-2.5,2.3-6.5,4.8-11.3,3.8c-4.8-0.9-7.5-4.8-9-7.8
		C271.1,154.2,270.5,147.4,271.9,140.5z"/>
	<path class="st1" d="M72.2,186.9c10-2,18.2-8.6,23.1-18.7c4.4-9.1,5.7-20.4,3.5-31.6c-2.2-11.2-7.6-21.1-15.2-27.9
		c-8.4-7.5-18.5-10.5-28.5-8.5h0c-19.7,3.9-31.4,26-26.6,50.3c2.2,11.2,7.6,21.1,15.2,27.9c6.7,6,14.5,9.1,22.5,9.1
		C68.2,187.4,70.2,187.2,72.2,186.9z M48.2,146.6c-2.6-13.1,2.3-25.1,10.8-26.8c0.7-0.1,1.4-0.2,2.1-0.2c3.9,0,7.1,2.1,9.2,4
		c4.4,3.9,7.5,9.9,8.9,16.9c1.4,7,0.7,13.7-1.8,19c-1.5,3-4.2,6.9-9,7.8c-4.8,0.9-8.8-1.6-11.3-3.8
		C52.7,159.5,49.5,153.5,48.2,146.6z"/>
	<path class="st1" d="M438.3,375.8c-12.6-12.3-29.3-19.1-46.9-19.1c0,0,0,0,0,0c-17.6,0-34.3,6.8-46.9,19.1
		c-28.6,27.9-46.4,47.1-52.9,57c-6.7,10.3-14.3,24.7-13.2,45.3c0.9,16.3,7.8,31.7,19.5,43.2c11.9,11.7,27.4,18.2,43.7,18.2
		c18.9,0,34.9-11.3,45-20.8c2.7-2.5,6.8-2.5,9.5,0.1c14.2,13.5,29.9,20.7,45.4,20.7c16.3,0,31.8-6.4,43.7-18.2
		c11.7-11.5,18.6-26.8,19.5-43.2c1.1-20.9-7-35.9-13.2-45.4C484.8,423,467,403.8,438.3,375.8z M484.5,477.1
		c-1.3,23.4-20.6,42.4-43.2,42.4c-13,0-24.3-8.2-31.6-15.2c-5.2-5-11.9-7.5-18.6-7.5c-6.6,0-13.2,2.4-18.4,7.3
		c-7.5,7-19,15.4-31.4,15.4c-22.6,0-42-19-43.2-42.4c-0.6-11.7,2.4-21.7,10-33.3c3.2-4.9,14-18.3,50.1-53.6
		c18.2-17.8,47.8-17.8,65.9,0c36.3,35.4,47.1,48.8,50.3,53.7C482.2,455.3,485.2,465.3,484.5,477.1z"/>
	<path class="st1" d="M430.5,424.5c-3.9-3.9-10.2-4-14.1-0.2c-3.9,3.9-4,10.2-0.2,14.1c18.8,19.2,24.6,26.8,25.1,27.5
		c3.5,5.4,3.5,7.1,3.4,9c-0.1,2.6-2.2,4.5-3.3,4.5c-5.5,0-10,4.5-10,10s4.5,10,10,10c12.1,0,22.5-10.5,23.2-23.5
		c0.4-7.3-1.5-13.3-6.7-21.2C456.2,452.3,448.4,442.8,430.5,424.5z"/>
	<path class="st1" d="M352.8,423.8c-21.2,21.5-26.7,29.1-27.9,30.9c-5.3,8-7.1,13.8-6.7,21.2c0.7,12.8,11,23.3,23,23.5
		c0,0,0.1,0,0.1,0c5.5,0,9.9-4.4,10-9.9c0.1-5.5-4.4-10-9.9-10.1c-1.1,0-3.1-1.9-3.3-4.5c-0.1-1.9-0.2-3.6,3.4-9.2
		c0.2-0.3,4.5-6.6,25.5-27.9c3.9-3.9,3.8-10.3-0.1-14.1C363,419.8,356.7,419.9,352.8,423.8z"/>
	<path class="st1" d="M303.7,303.9c0,29.8,19.2,54,42.8,54c23.6,0,42.8-24.2,42.8-54s-19.2-54-42.8-54
		C322.9,249.9,303.7,274.2,303.7,303.9z M346.5,269.9c12.3,0,22.8,15.6,22.8,34s-10.4,34-22.8,34c-12.3,0-22.8-15.6-22.8-34
		S334.1,269.9,346.5,269.9z"/>
	<path class="st1" d="M436.3,357.9c23.6,0,42.8-24.2,42.8-54s-19.2-54-42.8-54c-23.6,0-42.8,24.2-42.8,54S412.8,357.9,436.3,357.9z
		 M436.3,269.9c12.3,0,22.8,15.6,22.8,34s-10.4,34-22.8,34c-12.3,0-22.8-15.6-22.8-34S424,269.9,436.3,269.9z"/>
	<path class="st1" d="M511.8,322.6c-10-2-20.1,1.1-28.5,8.5c-7.6,6.8-13,16.7-15.2,27.9c-2.2,11.2-1,22.4,3.5,31.6
		c4.9,10.1,13.1,16.7,23.1,18.7c2,0.4,4,0.6,6,0.6c8,0,15.8-3.1,22.5-9.1c7.6-6.8,13-16.7,15.2-27.9
		C543.2,348.6,531.5,326.5,511.8,322.6z M518.8,369c-1.4,7-4.5,13-8.9,16.8c-2.5,2.3-6.5,4.8-11.3,3.8c-4.8-0.9-7.5-4.8-9-7.8
		c-2.6-5.3-3.2-12-1.8-19c1.4-7,4.5-13,8.9-16.9c2.2-1.9,5.4-4,9.2-4c0.7,0,1.4,0.1,2.1,0.2C516.5,343.9,521.3,356,518.8,369z"/>
	<path class="st1" d="M288.1,409.3c10-2,18.2-8.6,23.1-18.7c4.4-9.1,5.7-20.3,3.5-31.6c-2.2-11.2-7.6-21.1-15.2-27.9
		c-8.4-7.5-18.5-10.5-28.5-8.5c-19.7,3.9-31.4,26-26.6,50.3c2.2,11.2,7.6,21.1,15.2,27.9c6.7,6,14.5,9.1,22.5,9.1
		C284.1,409.9,286.1,409.7,288.1,409.3z M264,369c-2.6-13.1,2.3-25.1,10.8-26.8h0c0.7-0.1,1.4-0.2,2.1-0.2c3.9,0,7.1,2.1,9.2,4
		c4.4,3.9,7.5,9.9,8.9,16.9c1.4,7,0.7,13.7-1.8,19c-1.5,3-4.2,6.9-9,7.8c-4.8,0.9-8.8-1.6-11.3-3.8C268.5,382,265.4,376,264,369z"/>
</g>
<g class="st0">
	<path class="st1" d="M237.7,188h115.1c14.4,0,26,11.6,26,26v69.4c0,11-7,20.8-17.3,24.4v-24.4c0-14.4-11.6-26-26-26
		c-14.4,0-26,11.6-26,26v26h-52v-26c0-4.8-3.9-8.7-8.7-8.7s-8.7,3.9-8.7,8.7v69.4c0,4.8-3.9,8.7-8.7,8.7c-4.8,0-8.7-3.9-8.7-8.7
		v-69.4c0-4.8-3.9-8.7-8.7-8.7s-8.7,3.9-8.7,8.7v24.4c-10.4-3.7-17.3-13.4-17.3-24.4V214c0-14.4,11.6-26,26-26H237.7z M344.2,127.3
		c0,16.3-6.6,31.9-18.3,43.3h-84.8c-11.7-11.4-18.3-27-18.3-43.3H344.2z M214.7,110h-35.3c-4.8,0-8.7-3.9-8.7-8.7
		c0-4.8,3.9-8.7,8.7-8.7h138.7c4.8,0,8.7-3.9,8.7-8.7c0-4.8-3.9-8.7-8.7-8.7h-94.5c4.1-20.2,21.9-34.7,42.5-34.7h34.7
		c23.9,0,43.3,19.4,43.3,43.3c0,4.8,3.9,8.7,8.7,8.7h26c4.8,0,8.7,3.9,8.7,8.7c0,4.8-3.9,8.7-8.7,8.7H214.7z M326.8,352.7v-69.4
		c0-4.8,3.9-8.7,8.7-8.7c4.8,0,8.7,3.9,8.7,8.7v69.4c0,4.8-3.9,8.7-8.7,8.7C330.7,361.4,326.8,357.5,326.8,352.7z M396.2,283.3
		v-60.7h17.3c23.9,0,43.3,19.4,43.3,43.3v26h-52c-4.8,0-8.7,3.9-8.7,8.7v147.4c0,14.4-11.6,26-26,26H196.8c-14.4,0-26-11.6-26-26
		V283.3c0,20.6,14.5,38.3,34.7,42.5v26.9c0,14.4,11.6,26,26,26c14.4,0,26-11.6,26-26v-26h52v26c0,14.4,11.6,26,26,26
		c14.4,0,26-11.6,26-26v-26.9C381.7,321.7,396.1,303.9,396.2,283.3z M153.4,274.7V292h-43.3v-26c0-23.9,19.4-43.3,43.3-43.3h17.3
		v17.6C159.9,248.4,153.5,261.1,153.4,274.7z M153.4,448.1v26c0,9.6-7.8,17.3-17.3,17.3h-8.7c-9.6,0-17.3-7.8-17.3-17.3V309.4h43.3
		V448.1z M171.6,205.3h-18.2c-33.5,0-60.6,27.2-60.7,60.7v208.1c0,19.2,15.5,34.7,34.7,34.7h8.7c16.2,0,30.2-11.2,33.8-27
		c7.6,6.2,17.1,9.6,26.9,9.7v43.3c0,4.8,3.9,8.7,8.7,8.7c4.8,0,8.7-3.9,8.7-8.7v-43.3h147.4v43.3c0,4.8,3.9,8.7,8.7,8.7
		c4.8,0,8.7-3.9,8.7-8.7v-44.2c7.7-1.6,14.8-5.3,20.6-10.7c5.6,12.3,17.9,20.2,31.4,20.2h8.7c19.2,0,34.7-15.5,34.7-34.7v-60.7
		c0-4.8-3.9-8.7-8.7-8.7c-4.8,0-8.7,3.9-8.7,8.7v60.7c0,9.6-7.8,17.3-17.3,17.3h-8.7c-9.6,0-17.3-7.8-17.3-17.3V309.4h43.3v26
		c0,4.8,3.9,8.7,8.7,8.7c4.8,0,8.7-3.9,8.7-8.7V266c0-33.5-27.2-60.6-60.7-60.7h-18.2c-4.1-20.2-21.9-34.7-42.5-34.7h-4.7
		c8.7-12.8,13.3-27.9,13.3-43.3h17.3c14.4,0,26-11.6,26-26s-11.6-26-26-26h-18c-4.3-29.8-29.9-52-60-52h-34.7
		c-30.1,0-55.7,22.2-60,52h-26.7c-14.4,0-26,11.6-26,26s11.6,26,26,26h26c0,15.5,4.7,30.5,13.3,43.3h-4.7
		C193.5,170.7,175.8,185.1,171.6,205.3z M352.8,413.4H214.1c-4.8,0-8.7,3.9-8.7,8.7c0,4.8,3.9,8.7,8.7,8.7h104v17.3
		c0,4.8,3.9,8.7,8.7,8.7c4.8,0,8.7-3.9,8.7-8.7v-17.3h17.3c4.8,0,8.7-3.9,8.7-8.7C361.5,417.3,357.6,413.4,352.8,413.4z
		 M274.8,257.3h17.3c4.8,0,8.7-3.9,8.7-8.7c0-4.8-3.9-8.7-8.7-8.7h-17.3c-4.8,0-8.7-3.9-8.7-8.7v-8.7h43.3c4.8,0,8.7-3.9,8.7-8.7
		s-3.9-8.7-8.7-8.7h-52c-4.8,0-8.7,3.9-8.7,8.7v17.3C248.8,245.7,260.4,257.3,274.8,257.3z"/>
</g>
<g class="st0">
	<path class="st1" d="M355.7,253.9c1,0.3,2,0.5,3,0.5c3.8,0,7.4-2.4,8.7-6.2c2.9-8.4,12.1-13,20.5-10.1c18,6.1,37.7-3.6,43.8-21.6
		c1.6-4.8-1-10-5.7-11.6c-4.8-1.6-10.1,0.9-11.7,5.7c-2.9,8.4-12.1,13-20.5,10.1c-18-6.1-37.7,3.6-43.8,21.6
		C348.3,247,350.9,252.2,355.7,253.9z"/>
	<path class="st1" d="M377.4,189.8c1,0.3,2,0.5,3,0.5c3.8,0,7.4-2.4,8.7-6.2c1.4-4.1,4.3-7.4,8.1-9.3c3.9-1.9,8.3-2.2,12.3-0.8
		c18,6.1,37.7-3.6,43.8-21.6c1.6-4.8-1-10-5.7-11.7c-4.8-1.6-10,1-11.7,5.8c-2.8,8.4-12,13-20.5,10.1c-8.8-3-18.1-2.4-26.4,1.7
		c-8.3,4.1-14.5,11.2-17.5,19.9C370,183,372.6,188.2,377.4,189.8z"/>
	<path class="st1" d="M399.1,125.8c1,0.3,2,0.5,3,0.5c3.8,0,7.4-2.4,8.7-6.3c2.1-6.2,8.9-9.6,15.1-7.5c7.7,2.6,15.9,2.1,23.2-1.5
		c7.3-3.6,12.7-9.8,15.3-17.5c1.6-4.8-0.9-10-5.7-11.7c-4.8-1.6-10,1-11.6,5.8c-1.1,3-3.2,5.5-6,6.8c-2.9,1.4-6.1,1.6-9.1,0.6
		c-15.8-5.3-33.1,3.2-38.5,19C391.8,118.9,394.3,124.2,399.1,125.8z"/>
	<path class="st1" d="M436.6,492.8c-0.9,18.1-15.8,32.3-33.9,32.3H144.7c-18.1,0-33-14.2-33.9-32.5L95.4,275.4l8,4.8
		c8.7,5.2,18.4,7.7,28.1,7.7c9.7,0,19.4-2.5,28.1-7.7l3.2-1.9c4.5-2.7,9.6-4,14.6-4.1c5.1,0.1,10.1,1.4,14.7,4.1l6.6,4
		c8.3,5,17.7,7.1,26.9,6.6c0.8,0,1.7,0,2.5-0.1c0.1,0,0.2,0,0.3,0c6.3-0.7,12.4-2.7,18.1-5.9c0.5-0.2,1.1-0.2,1.6-0.5l6.6-4
		c4.5-2.7,9.6-4,14.6-4.1c5.1,0.1,10.1,1.4,14.7,4.1l6.6,4c6.9,4.2,14.7,6.3,22.4,6.6c0.2,0,0.3,0,0.5,0c2.7,0.1,5.4,0,8-0.4
		c1.5-0.2,3-0.6,4.5-0.9c0.7-0.2,1.5-0.3,2.2-0.5c4.1-1.2,8-2.6,11.8-4.9l6.6-3.9c4.5-2.7,9.6-4.1,14.6-4.1c5.1,0,10.1,1.4,14.7,4.1
		l6.6,3.9c7.6,4.5,16.1,6.8,24.6,6.7c0.1,0,0.3,0,0.4,0c8.2,0,16.5-2.1,23.9-6.5l18-8c0.4-0.1,0.7-0.5,1.1-0.7l1.4-0.6L436.6,492.8z
		 M97.5,237.2c3.9-7.3,13.4-12.9,29.7-17.6c7.7-2.1,14.8-6.3,20.5-11.8c2.6-2.5,5.1-4.6,7.5-6.6c7.4-6,13.8-9.3,19.6-10
		c0.1,0,0.2,0,0.4,0c1.8-0.2,3.6-0.1,5.3,0.2c0.4,0,0.9,0.2,1.4,0.3c0.8,0.2,1.7,0.4,2.5,0.8c0.5,0.2,1.1,0.5,1.7,0.8
		c0.8,0.4,1.6,0.7,2.4,1.2c0.6,0.4,1.2,0.9,1.9,1.3c0.7,0.5,1.5,1,2.3,1.6c0.7,0.5,1.4,1.2,2.1,1.9c0.7,0.6,1.4,1.2,2.1,1.9
		c0.8,0.8,1.6,1.7,2.4,2.6c0.6,0.7,1.2,1.3,1.9,2.1c0.9,1.1,1.8,2.3,2.6,3.4c0.6,0.7,1.1,1.4,1.7,2.1c1,1.4,2,3,3,4.5
		c0.4,0.7,0.9,1.3,1.3,2c1.4,2.3,2.9,4.7,4.4,7.4c6.7,11.9,9,29.6,6.1,44.9c-0.5,0-1-0.1-1.4-0.2c-3.5-0.6-6.9-1.7-9.9-3.5l-6.6-3.9
		c-7.6-4.5-16-6.8-24.4-6.8c-0.1,0-0.2,0-0.3,0c-8.6,0-17.1,2.2-24.7,6.8l-3.2,1.9c-5.6,3.4-11.8,5-18,5.1c-6.2,0-12.4-1.7-18-5.1
		l-12.3-7.4c-1.6-1-3.4-1.6-5.2-2C94.5,247.8,95,241.9,97.5,237.2z M156.5,160.9l6-5l-3.9-6.8c-2.4-4.2-3.7-9-3.7-13.8
		c0-14.9,11.6-27,26.6-27.6l11.2-0.5L190,96.4c-0.4-1.8-0.7-3.6-0.7-5.3c0-11.8,9.3-21.8,21.1-22.7l8.5-0.6v-9.1
		c0.2-8.3,7-14.9,15.4-14.9c4.8,0,8.2,2.2,10.2,4l6.5,5.8l6.2-6.1c2.8-2.8,6.7-4.1,10.7-3.6c4.9,0.6,9.4,4.4,10.8,9.3
		c0.5,1.7,0.7,3.3,0.4,4.9l-1.1,10.3h10.3c13.2,0,24.3,10.3,25.2,23.4l0.4,6.1l5.7,2c14.4,5.1,23.8,18.7,23.5,33.9
		c-0.1,6.5-2.3,12.7-6,18.2c-6.2-5.2-12.8-8.8-18.4-11.7c-1.4-0.8-2.8-1.5-4.2-2.3c-0.4-0.2-0.9-0.6-1.1-1.6
		c-0.2-1.3,0.3-2.9,1.3-4.1c4-4.6,5.6-11,4.3-16.9l-1.1-5.1c-1.2-5.1-4.2-9.5-8.6-12.3c-4.4-2.8-9.7-3.8-14.7-2.7l-2.5,0.6
		c0,0,0,0-0.1,0l-27,5.9l-26.3,5.7c-5.1,1.1-9.5,4.2-12.3,8.6c-2.8,4.4-3.8,9.7-2.6,14.7l0.5,2.5v0l0.6,2.5
		c1.3,6.1,5.5,11.3,11.3,13.7c1.4,0.6,2.6,1.8,3.1,3c0.2,0.7,0.1,1.1-0.4,1.9c0,0,0,0,0,0c-0.9,1.2-1.9,2.4-2.9,3.7
		c-1,1.3-2.1,2.6-3.1,4c-0.4,0.5-0.7,1-1.1,1.4c-0.8,1.1-1.5,2.1-2.3,3.2c-0.4,0.6-0.8,1.2-1.2,1.8c-0.7,1.1-1.4,2.2-2.1,3.3
		c-0.4,0.7-0.8,1.3-1.1,2c-0.7,1.2-1.3,2.6-2,4c-0.2,0.6-0.5,1.1-0.8,1.8c-0.8,2-1.5,4.1-2.1,6.3c-0.1,0.3-0.1,0.7-0.2,1.1
		c-0.4,1.9-0.8,3.8-1.1,5.8c-0.1,0.8-0.1,1.6-0.1,2.5c-0.1,1.1-0.2,2.1-0.2,3.2c0,0,0,0-0.1-0.1c-0.1-0.2-0.2-0.3-0.4-0.5
		c-1.6-2.1-3.2-4.1-4.8-5.9c-0.5-0.6-1.1-1.2-1.5-1.7c-1.3-1.4-2.7-2.8-4.1-4.1c-0.4-0.4-0.9-0.9-1.3-1.2c-1.7-1.5-3.4-3-5.2-4.2
		c-0.5-0.3-1-0.6-1.5-1c-1.3-0.9-2.6-1.7-3.9-2.4c-0.7-0.3-1.3-0.7-1.9-1c-1.4-0.7-2.8-1.2-4.2-1.7c-0.4-0.2-0.9-0.4-1.4-0.6
		c-1.5-0.4-3-0.9-4.5-1.2c-0.1,0-0.3,0-0.5,0c-0.3-0.1-0.6-0.2-0.9-0.2c-1.1-0.1-2.1-0.1-3.1-0.2c-0.8,0-1.5-0.2-2.2-0.2
		c-0.2,0-0.5,0-0.7,0c-1.4,0-2.8,0.2-4.2,0.4c-0.7,0.1-1.4,0.1-2.1,0.3c-1.8,0.3-3.6,0.8-5.3,1.3c-0.3,0-0.5,0.1-0.8,0.2
		c-4.6,1.5-8.9,3.7-13,6.4c-0.8-2.1-1.2-4.3-1.2-6.6C150,169.4,152.4,164.3,156.5,160.9z M266.4,255.9c-0.7,0-1.4,0.1-2.1,0.1
		c-5,0.5-9.9,1.8-14.6,3.9l-1.7-8c2.6,0.2,5.3,0.5,7.8,0.5c16,0,28.9-4.8,43.7-15.3c4.7-3.3,8.8-5.9,12.7-7.9
		c-0.9,2.4-1.7,4.8-2.5,7.2c-0.6,1.7-1.2,3.4-1.8,5.2c-2.7,8.2-5.3,16.4-7.7,24.7l-6.1-3.6c-7.5-4.5-15.9-6.8-24.4-6.8
		c-0.1,0-0.2,0-0.3,0C268.4,255.8,267.4,255.9,266.4,255.9z M296.1,113.8c0.2,0,0.5-0.1,0.7-0.1c1.7,0,3.4,1.2,3.7,3
		c0.3,1.3-0.2,2.3-0.5,2.8c-0.3,0.5-1.1,1.4-2.3,1.7l-50.8,11.1c-2,0.4-4.1-0.9-4.5-2.9c-0.4-2,0.9-4.1,2.9-4.5l27-5.9L296.1,113.8z
		 M250.6,169.6c1.1-1.4,2.1-2.7,3.1-4c0,0,0,0,0,0c0.7-1,1.4-2,1.9-3c2.3-4.3,2.8-9,1.7-13.7l38.4-8.4c0.2,1.2,0.5,2.4,1,3.5
		c1.7,4.2,4.8,7.7,9,10.1c1.4,0.8,2.9,1.5,4.4,2.3c1.2,0.7,2.5,1.3,3.7,2c0.6,0.3,1.2,0.6,1.8,1c1.1,0.6,2.1,1.3,3.2,2
		c0.9,0.6,1.8,1.2,2.7,1.8c1,0.7,2,1.5,3,2.3c0.8,0.7,1.7,1.4,2.4,2.3c0.9,0.8,1.8,1.7,2.5,2.7c1.4,1.7,2.8,3.4,3.9,5.5
		c-3.9,8.6-7.6,17.4-11.1,26.2c-0.5,1.3-1.1,2.7-1.7,4.1c-10,2.5-19.8,7.3-31.8,15.9c-15.1,10.7-26.4,13.6-45,10.9l-5.5-25.6
		C234.5,190.2,242.6,179.7,250.6,169.6z M367.7,147.8c3.6-6.8,7.6-15.2,11.8-24.1c13.8-29.3,32.7-69.5,54.7-80.8
		c8-4.1,14.9-4.2,21.1-0.3c10.6,6.7,16.9,23.5,16.6,35.4c-1.4,54.3-11.3,111.5-29.5,169.9c-0.6,1.9-1.9,5.8-3.8,11.1l-15.6,6.9
		c-0.4,0.2-0.7,0.3-1,0.5c-4.5,2.7-9.6,4.1-14.7,4.1c-5.1,0-10.1-1.4-14.6-4.1l-6.6-3.9c-7.5-4.5-16-6.8-24.4-6.8
		c-0.1,0-0.2,0-0.3,0c-8.5,0-17.1,2.2-24.7,6.8l-6.6,3.9c-3.6,2.2-7.7,3.2-11.8,3.7c0.2-0.8,0.5-1.6,0.7-2.4
		c2.5-8.5,5.2-17,8.1-25.4c1.1-3.2,2.2-6.3,3.3-9.5c2.3-6.7,4.8-13.2,7.4-19.7c1.2-2.9,2.3-5.8,3.5-8.7
		C349.1,184.9,358,166,367.7,147.8z M465.7,253.2c-1.6-1.1-3.4-1.7-5.2-2c18.2-59.3,28.3-117.4,29.7-172.8
		C490.6,61,482.1,37.7,465,27c-8.2-5.2-21.7-9.4-39.2-0.4c-27.5,14.2-47.1,55.8-62.8,89.3c-0.9,2-1.8,3.8-2.7,5.7
		c-3.5-16-14.1-29.7-29.1-36.8c-3.5-17.1-17-30.4-34.1-33.9c-0.2-1-0.4-1.9-0.7-2.8c-3.5-12-14.1-21-26.3-22.5
		c-6.9-0.8-13.7,0.6-19.5,4c-5-2.8-10.5-4.2-16.3-4.2c-16,0-29.4,11.1-32.9,26c-17.5,4.7-30.3,20.8-30.4,39.4
		c-19.9,5.1-34.5,23.2-34.5,44.5c0,5.7,1.1,11.3,3.2,16.6c-5.2,6.4-8,14.4-8,22.8c0,5,1,9.9,3,14.4c-9.2-10-22.1-18.2-36.6-17.7
		c-5.1,0.2-9,4.4-8.9,9.5c0.1,5,4.3,8.9,9.2,8.9c0.3,0,0.6,0,0.9,0c8.6,0,16.6,5.7,22.4,12.3c-14.6,4.2-32.1,11.1-40.3,26.5
		c-5,9.3-5.5,20.7-2.3,33.8c-1.6,2.7-2.4,5.7-2.3,9.1l15.6,222.2c1.4,27.9,24.4,49.7,52.3,49.7h257.9c27.9,0,50.9-21.8,52.3-49.5
		l16-230c0,0,0-0.1,0-0.2C471.1,259.6,469.2,255.6,465.7,253.2z"/>
	<path class="st1" d="M131.9,416.5h64.3c5.1,0,9.2-4.1,9.2-9.2s-4.1-9.2-9.2-9.2h-64.3c-5.1,0-9.2,4.1-9.2,9.2
		S126.8,416.5,131.9,416.5z"/>
	<path class="st1" d="M131.9,453.2h82.7c5.1,0,9.2-4.1,9.2-9.2s-4.1-9.2-9.2-9.2h-82.7c-5.1,0-9.2,4.1-9.2,9.2
		S126.8,453.2,131.9,453.2z"/>
	<path class="st1" d="M232.9,471.6H131.9c-5.1,0-9.2,4.1-9.2,9.2s4.1,9.2,9.2,9.2h101.1c5.1,0,9.2-4.1,9.2-9.2
		S238,471.6,232.9,471.6z"/>
	<path class="st1" d="M288.1,471.6h-18.4c-5.1,0-9.2,4.1-9.2,9.2s4.1,9.2,9.2,9.2h18.4c5.1,0,9.2-4.1,9.2-9.2
		S293.1,471.6,288.1,471.6z"/>
</g>
<g class="st0">
	<g class="st1">
		<g>
			<path d="M326.5,510c-5.2-2.1-11.2,0.4-13.3,5.7c-1.8,4.4-6.2,7.3-11.1,7.3h-37.3c-4.9,0-9.3-2.9-11.1-7.3
				c-2.1-5.2-8.1-7.8-13.3-5.7c-5.2,2.1-7.8,8.1-5.7,13.3c4.9,12.2,16.7,20.2,30.1,20.2h37.3c13.3,0,25.1-7.9,30.1-20.2
				C334.3,518,331.7,512.1,326.5,510z"/>
		</g>
	</g>
	<g class="st1">
		<g>
			<path d="M446.6,457.3c-2.8-14.3-11.6-26.7-24.2-34c2.3-1.9,4.4-3.9,6.4-6.2c9.7-11.2,14-26.1,11.8-40.8
				c-3.6-23.8-13.7-46.1-29.3-64.4c-11.7-13.7-26.1-24.8-42.1-32.5c19.7-21,31.8-49.2,31.8-80.2c0-53.6-36.1-98.9-85.3-112.9
				c6.7-8,10.4-18,10.4-28.6c0-20.8-16.9-37.7-37.7-37.7c0,0,0,0,0,0c-8.4,0-16.2,2.7-22.1,7.7c-6.5,5.5-10.1,13.2-10.1,21.7
				c0,5.6,4.6,10.2,10.2,10.2c5.6,0,10.2-4.6,10.2-10.2c0-2.4,0.9-4.5,2.8-6c2.2-1.9,5.4-2.9,9-2.9h0c9.5,0,17.3,7.7,17.3,17.2
				c0,6.4-2.5,12.5-7.1,17.1c-4.6,4.6-10.6,7.1-17.1,7.1c0,0,0,0,0,0c-0.3,0-0.5,0-0.7,0c-63.3,1.6-114.4,53.6-114.4,117.3
				c0,31,12.1,59.2,31.8,80.2c-16.1,7.8-30.4,18.8-42.1,32.5c-15.6,18.3-25.8,40.6-29.3,64.4c-2.2,14.7,2.1,29.5,11.8,40.8
				c2,2.3,4.1,4.4,6.4,6.2c-12.6,7.3-21.4,19.7-24.2,34c-2.8,14.4,0.8,29.2,9.8,40.7l21.9,28c8.8,11.3,22.3,17.4,35.9,17.4
				c7.7,0,15.5-2,22.6-6c19.5-11.3,27.8-35.5,19.4-56.3l-13.3-32.9c-0.9-2.2-1.9-4.3-3.1-6.3h75c5.6,0,10.2-4.6,10.2-10.2
				s-4.6-10.2-10.2-10.2h-94.4v-21.6c0-2.8,2.3-5,5-5h168.5c2.8,0,5,2.3,5,5v23c-10.1,5.6-18.2,14.5-22.5,25.4L336.9,481
				c-8.4,20.9-0.1,45.1,19.4,56.3c7.1,4.1,14.9,6,22.6,6c13.6,0,27.1-6.1,35.9-17.4l21.9-28C445.8,486.5,449.4,471.7,446.6,457.3z
				 M186.6,199.1c0-53.4,43.5-96.9,96.9-96.9c53.4,0,96.9,43.5,96.9,96.9c0,53.4-43.5,96.9-96.9,96.9
				C230,296,186.6,252.6,186.6,199.1z M197.7,455.7l13.3,32.9c4.6,11.5,0,24.8-10.7,31c-10.7,6.2-24.6,3.5-32.2-6.2l-21.9-28
				c-5.4-6.8-7.5-15.7-5.8-24.2c1.7-8.5,6.9-15.9,14.5-20.3c7.5-4.3,16.6-5.2,24.8-2.4C187.9,441.4,194.5,447.6,197.7,455.7z
				 M367.8,353.8c-5.6,0-10.2,4.6-10.2,10.2v10.2H209.4V364c0-5.6-4.6-10.2-10.2-10.2c-5.6,0-10.2,4.6-10.2,10.2v12.4
				c-9,3.9-15.3,12.9-15.3,23.3v14.4c-7.7-0.8-14.9-4.5-20.1-10.4c-5.8-6.7-8.4-15.6-7-24.4c5.9-38.9,31.8-71,68.2-85.1
				c19.3,14,43,22.2,68.6,22.2c25.6,0,49.3-8.3,68.6-22.2c36.4,14,62.4,46.2,68.2,85.1c1.3,8.8-1.2,17.7-7,24.4
				c-5.1,6-12.3,9.7-20.1,10.4v-14.4c0-10.4-6.3-19.3-15.2-23.3V364C378,358.4,373.5,353.8,367.8,353.8z M420.7,485.4l-21.9,28
				c-7.6,9.7-21.5,12.4-32.2,6.2c-10.7-6.2-15.3-19.5-10.7-31l13.3-32.9c3.3-8.1,9.8-14.3,18.1-17.2c3.2-1.1,6.5-1.6,9.8-1.6
				c5.2,0,10.4,1.4,15,4c7.5,4.3,12.8,11.7,14.5,20.3C428.2,469.7,426,478.6,420.7,485.4z"/>
		</g>
	</g>
	<g class="st1">
		<g>
			<path d="M336.4,424.3c-1.9-1.9-4.5-3-7.2-3c-2.7,0-5.3,1.1-7.2,3c-1.9,1.9-3,4.5-3,7.2c0,2.7,1.1,5.3,3,7.2c1.9,1.9,4.5,3,7.2,3
				c2.7,0,5.3-1.1,7.2-3c1.9-1.9,3-4.5,3-7.2S338.3,426.2,336.4,424.3z"/>
		</g>
	</g>
	<g class="st1">
		<g>
			<path d="M311.7,234.1c-4.4-3.6-10.8-2.9-14.4,1.5c-3.4,4.2-8.4,6.6-13.8,6.6c-5.4,0-10.4-2.4-13.8-6.6c-3.6-4.4-10-5.1-14.4-1.5
				c-4.4,3.6-5.1,10-1.5,14.4c7.3,9,18.1,14.2,29.7,14.2s22.4-5.2,29.7-14.2C316.7,244,316,237.6,311.7,234.1z"/>
		</g>
	</g>
	<g class="st1">
		<g>
			<path d="M257.6,191.9c-9.3-9.3-24.4-9.3-33.6,0c-4,4-4,10.5,0,14.5c4,4,10.5,4,14.5,0c1.3-1.3,3.4-1.3,4.7,0c2,2,4.6,3,7.2,3
				c2.6,0,5.2-1,7.2-3C261.6,202.4,261.6,195.9,257.6,191.9z"/>
		</g>
	</g>
	<g class="st1">
		<g>
			<path d="M342.9,191.9c-9.3-9.3-24.4-9.3-33.6,0c-4,4-4,10.5,0,14.5c2,2,4.6,3,7.2,3c2.6,0,5.2-1,7.2-3c1.3-1.3,3.4-1.3,4.7,0
				c4,4,10.5,4,14.5,0C346.9,202.4,346.9,195.9,342.9,191.9z"/>
		</g>
	</g>
</g>
<g class="st0">
	<g class="st1">
		<g>
			<path d="M425.6,182.6l-46.6-24v-32.1h14.6c5.6,0,10.2-4.6,10.2-10.2v-86c0-5.6-4.6-10.2-10.2-10.2H173.3
				c-5.6,0-10.2,4.6-10.2,10.2v86c0,5.6,4.6,10.2,10.2,10.2h14.6v32.1l-46.6,24c-17.6,9.1-28.6,27-28.6,46.9v261.2
				c0,29.1,23.7,52.7,52.7,52.7h235.9c29.1,0,52.7-23.7,52.7-52.7V229.5C454.2,209.6,443.2,191.7,425.6,182.6z M364,40.4h19.4V106
				H364V40.4z M317.1,40.4h26.4V106h-26.4V40.4z M270.3,40.4h26.4V106h-26.4V40.4z M223.4,40.4h26.4V106h-26.4V40.4z M183.6,106
				V40.4H203V106H183.6z M433.7,490.6c0,17.8-14.5,32.3-32.3,32.3H165.5c-17.8,0-32.3-14.5-32.3-32.3v-35.1h300.5V490.6z
				 M433.7,435.1H173.3V311.7c0-5.6-4.6-10.2-10.2-10.2c-5.6,0-10.2,4.6-10.2,10.2v123.4h-19.7V252.1h260.4v125.5
				c0,5.6,4.6,10.2,10.2,10.2c5.6,0,10.2-4.6,10.2-10.2V252.1h19.7V435.1z M433.7,231.6H133.2v-2.1c0-12.2,6.7-23.2,17.5-28.7
				l52.1-26.9c3.4-1.8,5.5-5.3,5.5-9.1v-38.3h150.2v38.3c0,3.8,2.1,7.3,5.5,9.1l52.1,26.9c10.8,5.6,17.5,16.6,17.5,28.7V231.6z"/>
		</g>
	</g>
	<g class="st1">
		<g>
			<path d="M291.2,266.8c-1.9-2.3-4.8-3.6-7.8-3.6c-3,0-5.8,1.3-7.8,3.6c-5.3,6.2-51.6,61.6-51.6,91.6c0,32.8,26.7,59.4,59.4,59.4
				s59.4-26.7,59.4-59.4C342.9,328.3,296.5,273,291.2,266.8z M283.5,397.4c-21.5,0-39-17.5-39-39c0-14.7,21.5-46.7,39-68.9
				c17.5,22.1,39,54.1,39,68.9C322.4,379.9,305,397.4,283.5,397.4z"/>
		</g>
	</g>
	<g class="st1">
		<g>
			<path d="M173.1,273.6c-0.1-0.7-0.3-1.3-0.6-1.9c-0.3-0.6-0.6-1.2-0.9-1.8c-0.4-0.6-0.8-1.1-1.3-1.6c-0.5-0.5-1-0.9-1.6-1.3
				c-0.6-0.4-1.1-0.7-1.8-0.9c-0.6-0.3-1.3-0.5-1.9-0.6c-1.3-0.3-2.7-0.3-4,0c-0.7,0.1-1.3,0.3-1.9,0.6c-0.6,0.3-1.2,0.6-1.8,0.9
				c-0.6,0.4-1.1,0.8-1.6,1.3c-0.5,0.5-0.9,1-1.3,1.6c-0.4,0.6-0.7,1.1-0.9,1.8c-0.3,0.6-0.5,1.3-0.6,1.9c-0.1,0.7-0.2,1.3-0.2,2
				c0,0.7,0.1,1.3,0.2,2c0.1,0.7,0.3,1.3,0.6,1.9c0.3,0.6,0.6,1.2,0.9,1.8c0.4,0.6,0.8,1.1,1.3,1.6c0.5,0.5,1,0.9,1.6,1.3
				c0.6,0.4,1.1,0.7,1.8,0.9c0.6,0.3,1.3,0.5,1.9,0.6c0.7,0.1,1.3,0.2,2,0.2c0.7,0,1.3-0.1,2-0.2c0.7-0.1,1.3-0.3,1.9-0.6
				c0.6-0.3,1.2-0.6,1.8-0.9c0.6-0.4,1.1-0.8,1.6-1.3s0.9-1,1.3-1.6c0.4-0.6,0.7-1.1,0.9-1.8c0.3-0.6,0.5-1.3,0.6-1.9
				c0.1-0.7,0.2-1.3,0.2-2C173.3,275,173.3,274.3,173.1,273.6z"/>
		</g>
	</g>
	<g class="st1">
		<g>
			<path d="M413.8,411.7c-0.1-0.7-0.3-1.3-0.6-1.9c-0.3-0.6-0.6-1.2-0.9-1.8c-0.4-0.6-0.8-1.1-1.3-1.6c-0.5-0.5-1-0.9-1.6-1.3
				c-0.6-0.4-1.1-0.7-1.8-0.9c-0.6-0.3-1.3-0.4-1.9-0.6c-1.3-0.3-2.7-0.3-4,0c-0.7,0.1-1.3,0.3-1.9,0.6c-0.6,0.3-1.2,0.6-1.8,0.9
				c-0.6,0.4-1.1,0.8-1.6,1.3c-0.5,0.5-0.9,1-1.3,1.6c-0.4,0.6-0.7,1.2-0.9,1.8c-0.3,0.6-0.5,1.3-0.6,1.9c-0.1,0.7-0.2,1.3-0.2,2
				c0,0.7,0.1,1.3,0.2,2c0.1,0.7,0.3,1.3,0.6,1.9s0.6,1.2,0.9,1.8c0.4,0.6,0.8,1.1,1.3,1.5c0.5,0.5,1,0.9,1.6,1.3
				c0.6,0.4,1.1,0.7,1.8,0.9c0.6,0.3,1.3,0.4,1.9,0.6c0.7,0.1,1.3,0.2,2,0.2c0.7,0,1.3-0.1,2-0.2c0.7-0.1,1.3-0.3,1.9-0.6
				c0.6-0.3,1.2-0.6,1.8-0.9c0.6-0.4,1.1-0.8,1.6-1.3c0.5-0.5,0.9-1,1.3-1.5c0.4-0.6,0.7-1.2,0.9-1.8c0.3-0.6,0.5-1.3,0.6-1.9
				c0.1-0.7,0.2-1.3,0.2-2C414,413,414,412.3,413.8,411.7z"/>
		</g>
	</g>
</g>
<g class="st0">
	<g class="st1">
		<g>
			<path d="M508.6,46.9H58.4c-17,0-30.9,13.9-30.9,30.9v310.8c0,17,13.9,30.9,30.9,30.9h154.3v22.5c0,20.6-16.8,37.4-37.4,37.4h-34
				c-6.5,0-11.8,5.3-11.8,11.8s5.3,11.8,11.8,11.8h284.4c6.5,0,11.8-5.3,11.8-11.8s-5.3-11.8-11.8-11.8h-34
				c-20.6,0-37.4-16.8-37.4-37.4v-22.5h154.3c17,0,30.9-13.9,30.9-30.9V77.8C539.5,60.8,525.6,46.9,508.6,46.9z M223.4,479.5
				c8-10.3,12.9-23.3,12.9-37.4v-22.5h94.4v22.5c0,14.1,4.8,27.1,12.9,37.4H223.4z M515.9,388.7c0,4-3.3,7.3-7.3,7.3H58.4
				c-4,0-7.3-3.3-7.3-7.3v-62h464.8V388.7z M515.9,303H51.1V77.8c0-4,3.3-7.3,7.3-7.3h450.2c4,0,7.3,3.3,7.3,7.3L515.9,303
				L515.9,303z"/>
		</g>
	</g>
	<g class="st1">
		<g>
			<circle cx="283.5" cy="361.3" r="12.7"/>
		</g>
	</g>
	<g class="st1">
		<g>
			<path d="M303.7,128.3c-4.6-4.6-12.1-4.6-16.7,0l-83.4,83.4c-4.6,4.6-4.6,12.1,0,16.7c2.3,2.3,5.3,3.5,8.3,3.5s6-1.2,8.3-3.5
				l83.4-83.4C308.3,140.3,308.3,132.9,303.7,128.3z"/>
		</g>
	</g>
	<g class="st1">
		<g>
			<path d="M353.1,176.6c-4.6-4.6-12.1-4.6-16.7,0l-33.2,33.2c-4.6,4.6-4.6,12.1,0,16.7c2.3,2.3,5.3,3.5,8.3,3.5c3,0,6-1.2,8.3-3.5
				l33.2-33.2C357.8,188.7,357.8,181.2,353.1,176.6z"/>
		</g>
	</g>
</g>
<g class="st0">
	<path class="st1" d="M465.9,226.3c-0.3,0.4-1,1.1-2.2,1.1h-44.9c-1.2,0-2.3-0.8-2.7-2l-11-38h50.7l10.6,36.5
		C466.7,225,466.2,225.9,465.9,226.3z M283.5,483.3c-41.3,0-90.2-3.8-119.6-6.4l5.8-28.6c34.4,1.9,80.5,4.1,113.8,4.1
		c33.2,0,79.2-2.2,113.6-4.1l5.8,28.7C375.1,479.6,327.7,483.3,283.5,483.3z M150.8,225.4c-0.3,1.2-1.5,2-2.7,2h-44.9
		c-1.2,0-1.9-0.7-2.2-1.1c-0.3-0.4-0.8-1.3-0.5-2.5l10.6-36.5h50.7L150.8,225.4z M166.3,172.1h-50.7l8.1-27.8h50.7L166.3,172.1z
		 M186.8,101.2l-7.9,27.8h-50.7l8.1-27.8H186.8z M430.7,101.2l8.1,27.8h-50.7l-8-27.8H430.7z M392.6,144.3h50.7l8.1,27.8h-50.7
		L392.6,144.3z M363.6,156.8c-0.8,5.1-1.4,10.1-2,15.2H205.1c-0.6-5.1-1.2-10.2-2-15.2l-1.9-12.6h164.1L363.6,156.8z M204.1,273.6
		h158.5c1.2,9.3,2.8,18.6,4.6,27.8H199.5C201.3,292.2,202.9,282.9,204.1,273.6z M359,215.2H207.7c-0.1-9.3-0.5-18.5-1.2-27.8h153.6
		C359.5,196.7,359.1,205.9,359,215.2z M207.6,230.5h151.6c0.3,9.3,0.8,18.5,1.7,27.8h-155C206.7,249.1,207.3,239.8,207.6,230.5z
		 M369.2,118.9l-1.5,10.1H199l-1.4-9.7l5.1-18.1h161.5L369.2,118.9z M190.7,344.5l5.6-27.8h174l5.6,27.8H190.7z M283.5,390.8
		c-34.6,0-73.3-0.8-101.8-1.6l5.9-29.3h191.5l5.9,29.3C355.2,389.9,316.1,390.8,283.5,390.8z M394,433.1
		c-33.9,1.9-78.4,3.9-110.5,3.9c-32.2,0-76.8-2.1-110.7-3.9l5.8-28.7c28.7,0.8,69,1.7,104.9,1.7c33.8,0,74.5-0.9,104.7-1.7
		L394,433.1z M283.4,59.1c-15.1,0-29.1-6.3-39-17h78C312.4,52.8,298.4,59.1,283.4,59.1z M481.1,219.6L438.5,72.8
		c-2.8-9.5-7.4-18.2-13.7-25.9c-2.7-3.3-7.5-3.7-10.8-1c-3.3,2.7-3.7,7.5-1,10.8c5,6,8.6,12.9,10.8,20.4l2.5,8.8h-50.6l-0.7-2.6
		c-1.2-4.1-5.4-6.4-9.5-5.3c-3.5,1-5.8,4.3-5.5,7.9H206.8c0.2-3.5-2-6.9-5.6-7.9c-4.1-1.1-8.3,1.2-9.4,5.3l-0.7,2.6h-50.4l2.5-8.8
		c7-24.2,29.5-41.1,54.8-41.1H220c1,0,2,0.5,2.4,1.4c11.9,22.8,35.2,37,60.9,37c25.7,0,49.1-14.2,60.9-37c0.4-0.8,1.4-1.4,2.4-1.4
		H369c6.3,0,12.6,1.1,18.6,3.1c4,1.4,8.4-0.7,9.7-4.7c1.4-4-0.7-8.4-4.7-9.7c-7.6-2.6-15.5-4-23.6-4h-22.3c-5.3,0-10.2,2.3-13.6,6.1
		h-99.4c-3.4-3.8-8.3-6.1-13.6-6.1h-22.1c-32,0-60.5,21.5-69.5,52.2L85.9,219.6c-1.6,5.5-0.5,11.3,2.9,15.9
		c3.5,4.6,8.7,7.2,14.5,7.2h44.9c8,0,15.2-5.4,17.4-13.1l21.8-75.1l0.7,4.5c6.9,46.6,5.7,93.6-3.6,139.7l-43.5,214.3
		c-1,4.8,0.1,9.9,2.9,14c2.8,4,7.2,6.8,12.1,7.5c19.1,2.9,58.9,7.9,111.8,8.8h0.1c4.2,0,7.6-3.3,7.7-7.5c0.1-4.2-3.3-7.7-7.5-7.8
		c-52-0.8-91.1-5.7-109.8-8.6c-1-0.2-1.6-0.8-1.9-1.2c-0.3-0.4-0.7-1.1-0.5-2.2l4.9-24.2c29.4,2.7,80,6.6,122.6,6.6
		c45.7,0,94.7-3.9,122.5-6.5l4.9,24c0.2,1-0.2,1.8-0.4,2.2c-0.3,0.4-0.8,1-1.9,1.2c-8.2,1.2-21.6,3.1-39.1,4.7
		c-4.2,0.4-7.3,4.1-6.9,8.3c0.4,4,3.7,6.9,7.6,6.9c0.2,0,0.5,0,0.7,0c17.8-1.7,31.6-3.6,39.9-4.8c4.9-0.7,9.3-3.5,12.1-7.5
		c2.8-4,3.9-9.1,2.9-14l-43.5-214.3c-9.4-46.1-10.6-93.1-3.6-139.7l0.7-5l21.9,75.6c2.2,7.7,9.4,13.1,17.4,13.1h44.9
		c5.8,0,11-2.6,14.5-7.2C481.6,230.9,482.7,225.1,481.1,219.6z"/>
	<path class="st1" d="M334.7,526.8c-10.4,0.6-21.1,1-31.7,1.2c-4.2,0.1-7.6,3.6-7.5,7.8c0.1,4.2,3.5,7.5,7.7,7.5h0.2
		c10.8-0.2,21.6-0.6,32.2-1.2c4.2-0.2,7.5-3.8,7.2-8.1C342.5,529.8,338.9,526.5,334.7,526.8z"/>
</g>
<g class="st0">
	<g class="st1">
		<path d="M521.1,270.1C502,238.2,465,226,429.5,226c-0.3,0-18.1,1.4-44.1-4.5c-23.9-5.4-60.5-18.2-98.9-48.6
			c-9.2-7.3-18.3-15.4-26.9-24c-3.8-3.8-10.3-3.8-14.1,0c-10.5,10.5-33.1,35.7-33.1,35.7c-17.2,19.2-39.1,49.4-67.8,49.4
			c-26.8,0-58-12.6-58-48c0-5.5-4.5-10-10-10h-39c-5.5,0-10,4.5-10,10v210c0,5.5,4.5,10,10,10h492c5.5,0,10-4.5,10-10v-40
			C539.5,318.8,533.5,290.8,521.1,270.1z M412,245.8c6,0.4,20.4,0.2,21.7,0.3c-0.7,6.7-2.9,15.6-8.9,21.9c-5.6,5.9-14,9-25.1,9
			L412,245.8z M372.2,238.9c6.9,1.8,13.4,3.2,19.3,4.3l-12.8,32.6c-7.3-0.9-14.2-2.1-20.8-3.7L372.2,238.9z M336,226.2
			c5.8,2.6,11.5,4.8,17,6.8l-14.4,33.4c-6.8-2.4-13-5.1-18.7-7.9L336,226.2z M289.4,200c9.8,6.8,19.3,12.5,28.6,17.5l-15.7,31.3
			c-7.2-4.5-12.8-8.7-16.5-11.6C287.5,225.2,288.7,212.8,289.4,200z M399.5,297c29.7,0,51-19.6,54.2-49
			c23.2,4.1,39.7,14.8,50.3,32.5c9.4,15.6,14.4,37.1,15.4,65.5H252.2c9.9-16.6,22.2-44,30.2-86.4C303.8,274.8,344.4,297,399.5,297z
			 M229.5,195.3l1.2-1.4c7.1-7.9,14.3-15.9,21.9-23.9c5.7,5.3,11.5,10.5,17.4,15.3c-0.7,19.1-2.2,37.4-4.7,54.4
			c-9.2,62.8-28.3,94.4-37.2,106.2h-43.3C201.6,322.2,224.7,275.6,229.5,195.3z M159.6,251.9c16.8-4.6,31.6-16.3,47.7-32.6
			c-9.2,77-36.1,113.8-48.1,126.7h-31c-1-6.6-2.8-13-5.1-19.2C136.3,315.2,153.5,292.8,159.6,251.9z M47.5,196h19.7
			c2.2,16.6,10.1,30.6,23,40.9c12.6,10.1,29.8,16,48.9,17c-5,28.1-16,44.8-25.4,54.4c-15-22.9-39.1-38.2-66.2-42.2V196z M47.5,286.3
			c0-0.2,11,2.7,16.5,5.1c22.3,9.7,39.3,30.5,44,54.6H47.5C47.5,346,47.5,286.3,47.5,286.3z M519.5,386h-472v-20h472V386z"/>
	</g>
</g>
<g class="st0">
	<g class="st1">
		<g>
			<path d="M89.8,476.3c-0.1-0.6-0.3-1.3-0.6-1.9c-0.2-0.6-0.6-1.2-0.9-1.7c-0.4-0.5-0.8-1.1-1.2-1.5c-0.5-0.5-1-0.9-1.5-1.2
				c-0.5-0.4-1.1-0.7-1.7-0.9s-1.2-0.4-1.9-0.6c-1.3-0.3-2.6-0.3-3.9,0c-0.6,0.1-1.3,0.3-1.9,0.6s-1.2,0.6-1.7,0.9
				c-0.5,0.4-1.1,0.8-1.5,1.2s-0.9,1-1.2,1.5c-0.4,0.5-0.7,1.1-0.9,1.7c-0.2,0.6-0.4,1.2-0.6,1.9c-0.1,0.6-0.2,1.3-0.2,2
				s0.1,1.3,0.2,2s0.3,1.3,0.6,1.9c0.2,0.6,0.6,1.2,0.9,1.7c0.4,0.5,0.8,1.1,1.2,1.5s1,0.9,1.5,1.2c0.5,0.4,1.1,0.7,1.7,0.9
				s1.2,0.4,1.9,0.6c0.7,0.1,1.3,0.2,1.9,0.2c2.6,0,5.2-1.1,7.1-2.9c0.5-0.5,0.9-1,1.2-1.5c0.4-0.5,0.7-1.1,0.9-1.7
				c0.2-0.6,0.4-1.2,0.6-1.9c0.1-0.6,0.2-1.3,0.2-2S90,477,89.8,476.3z"/>
		</g>
	</g>
	<g class="st1">
		<g>
			<path d="M386.3,454.2h0.7c5.5,0,10-4.5,10-10V52.4c0-16.8-13.6-30.4-30.4-30.4H57.9c-16.8,0-30.4,13.6-30.4,30.4v426.7
				c0,24.7,20.1,44.9,44.9,44.9h314c5.5,0,10-4.5,10-10s-4.5-10-10-10c-13.7,0-24.9-11.2-24.9-24.9S372.6,454.2,386.3,454.2z
				 M47.5,52.4c0-5.7,4.7-10.4,10.4-10.4h37.8v392.2H72.3c-9.2,0-17.8,2.8-24.9,7.5V52.4z M120,488.3h222.4c1.2,5.7,3.5,11,6.6,15.7
				H72.3c-13.7,0-24.9-11.2-24.9-24.9s11.2-24.9,24.9-24.9H349c-2.8,4.2-5,9-6.2,14H120c-5.5,0-10,4.5-10,10S114.5,488.3,120,488.3z
				 M115.6,434.2V42h251c5.7,0,10.4,4.7,10.4,10.4v381.8L115.6,434.2L115.6,434.2z"/>
		</g>
	</g>
	<g class="st1">
		<g>
			<path d="M330,245.6c-0.5-0.5-1-0.9-1.5-1.2c-0.5-0.4-1.1-0.7-1.7-0.9c-0.6-0.2-1.2-0.4-1.9-0.6c-3.2-0.7-6.7,0.4-9,2.7
				c-0.5,0.5-0.9,1-1.2,1.5c-0.4,0.5-0.7,1.1-0.9,1.7c-0.2,0.6-0.4,1.2-0.6,1.9s-0.2,1.3-0.2,1.9s0.1,1.3,0.2,1.9s0.3,1.3,0.6,1.9
				c0.2,0.6,0.6,1.2,0.9,1.7c0.4,0.5,0.8,1.1,1.2,1.5c1.9,1.9,4.4,2.9,7.1,2.9c0.6,0,1.3-0.1,2-0.2c0.6-0.1,1.3-0.3,1.9-0.6
				c0.6-0.2,1.2-0.6,1.7-0.9c0.5-0.4,1.1-0.8,1.5-1.2c0.5-0.5,0.9-1,1.2-1.5c0.4-0.5,0.7-1.1,0.9-1.7c0.2-0.6,0.4-1.2,0.6-1.9
				s0.2-1.3,0.2-1.9C332.9,250.1,331.8,247.5,330,245.6z"/>
		</g>
	</g>
	<g class="st1">
		<g>
			<path d="M282.9,242.7H157.2c-5.5,0-10,4.5-10,10c0,5.5,4.5,10,10,10h125.7c5.5,0,10-4.5,10-10
				C292.9,247.2,288.4,242.7,282.9,242.7z"/>
		</g>
	</g>
	<g class="st1">
		<g>
			<path d="M164.3,289.6c-0.5-0.5-1-0.9-1.5-1.2c-0.5-0.4-1.1-0.7-1.7-0.9c-0.6-0.2-1.2-0.5-1.9-0.6c-3.2-0.7-6.7,0.4-9,2.7
				c-0.5,0.5-0.9,1-1.2,1.5c-0.4,0.5-0.7,1.1-0.9,1.7c-0.2,0.6-0.4,1.2-0.6,1.9c-0.1,0.6-0.2,1.3-0.2,2c0,2.6,1.1,5.2,2.9,7.1
				c1.9,1.9,4.4,2.9,7.1,2.9c0.6,0,1.3-0.1,1.9-0.2s1.3-0.3,1.9-0.6c0.6-0.2,1.2-0.6,1.7-0.9c0.6-0.4,1.1-0.8,1.5-1.2
				c1.9-1.9,2.9-4.4,2.9-7.1S166.1,291.5,164.3,289.6z"/>
		</g>
	</g>
	<g class="st1">
		<g>
			<path d="M322.9,286.7H197.2c-5.5,0-10,4.5-10,10s4.5,10,10,10h125.7c5.5,0,10-4.5,10-10S328.4,286.7,322.9,286.7z"/>
		</g>
	</g>
	<g class="st1">
		<g>
			<path d="M327.2,112.7h-170c-5.5,0-10,4.5-10,10V208c0,5.5,4.5,10,10,10h170c5.5,0,10-4.5,10-10v-85.3
				C337.2,117.2,332.7,112.7,327.2,112.7z M317.2,198h-150v-65.3h150V198z"/>
		</g>
	</g>
	<g class="st1">
		<g>
			<path d="M529.5,24.1H448c-5.5,0-10,4.5-10,10v413.1c0,1.9,0.5,3.7,1.5,5.3l40.7,64.7c1.8,2.9,5,4.7,8.5,4.7
				c3.4,0,6.6-1.8,8.5-4.7l40.7-64.7c1-1.6,1.5-3.4,1.5-5.3V34.1C539.5,28.6,535,24.1,529.5,24.1z M458,99.2h20.7v336H458L458,99.2
				L458,99.2z M488.7,493.1l-23.9-37.9h47.7L488.7,493.1z M519.5,435.2h-20.7v-336h20.7V435.2z M519.5,79.2H458V44.1h61.4V79.2z"/>
		</g>
	</g>
</g>
<g class="st0">
	<g class="st1">
		<g>
			<path d="M529.5,519.5h-44v-79c0-5.5-4.5-10-10-10s-10,4.5-10,10v79h-120v-190c0-5.5-4.5-10-10-10h-104c-5.5,0-10,4.5-10,10v190
				h-120v-226h3.8c2.7,0,5.2-1.1,7.1-2.9l171.1-171.1l171.1,171.1c1.9,1.9,4.4,2.9,7.1,2.9h3.8v75c0,5.5,4.5,10,10,10s10-4.5,10-10
				v-75h44c4,0,7.7-2.4,9.2-6.2c1.5-3.7,0.7-8-2.2-10.9l-246-246c-3.9-3.9-10.2-3.9-14.1,0l-94,94c-3.9,3.9-3.9,10.2,0,14.1
				c3.9,3.9,10.2,3.9,14.1,0l86.9-86.9l221.9,221.9h-39.6L290.5,98.2c-3.9-3.9-10.2-3.9-14.1,0L101.2,273.5H61.6l78.9-78.9
				c3.9-3.9,3.9-10.2,0-14.1c-3.9-3.9-10.2-3.9-14.1,0l-96,96c-2.9,2.9-3.7,7.2-2.2,10.9s5.2,6.2,9.2,6.2h44v226h-44
				c-5.5,0-10,4.5-10,10s4.5,10,10,10h54h140h104h140h54c5.5,0,10-4.5,10-10S535,519.5,529.5,519.5z M325.5,519.5h-84v-180h84V519.5
				z"/>
		</g>
	</g>
	<g class="st1">
		<g>
			<path d="M433.5,319.5h-56c-5.5,0-10,4.5-10,10v100c0,5.5,4.5,10,10,10h56c5.5,0,10-4.5,10-10v-100
				C443.5,323.9,439,319.5,433.5,319.5z M423.5,419.5h-36v-80h36V419.5z"/>
		</g>
	</g>
	<g class="st1">
		<g>
			<path d="M189.5,319.5h-56c-5.5,0-10,4.5-10,10v100c0,5.5,4.5,10,10,10h56c5.5,0,10-4.5,10-10v-100
				C199.5,323.9,195,319.5,189.5,319.5z M179.5,419.5h-36v-80h36V419.5z"/>
		</g>
	</g>
	<g class="st1">
		<g>
			<path d="M283.5,191.8c-25.4,0-46,20.6-46,46s20.6,46,46,46c25.4,0,46-20.6,46-46S308.8,191.8,283.5,191.8z M283.5,263.8
				c-14.3,0-26-11.7-26-26s11.7-26,26-26s26,11.7,26,26S297.8,263.8,283.5,263.8z"/>
		</g>
	</g>
	<g class="st1">
		<g>
			<path d="M271.5,422.4c-1.9-1.9-4.4-2.9-7.1-2.9c-2.6,0-5.2,1.1-7.1,2.9c-1.9,1.9-2.9,4.4-2.9,7.1s1.1,5.2,2.9,7.1
				c1.9,1.9,4.4,2.9,7.1,2.9s5.2-1.1,7.1-2.9c1.9-1.9,2.9-4.4,2.9-7.1S273.4,424.3,271.5,422.4z"/>
		</g>
	</g>
	<g class="st1">
		<g>
			<path d="M167.5,153.4c-1.9-1.9-4.4-2.9-7.1-2.9s-5.2,1.1-7.1,2.9s-2.9,4.4-2.9,7.1s1.1,5.2,2.9,7.1c1.9,1.9,4.4,2.9,7.1,2.9
				s5.2-1.1,7.1-2.9c1.9-1.9,2.9-4.4,2.9-7.1S169.4,155.3,167.5,153.4z"/>
		</g>
	</g>
	<g class="st1">
		<g>
			<path d="M482.5,394.7c-1.9-1.9-4.4-2.9-7.1-2.9c-2.6,0-5.2,1.1-7.1,2.9c-1.9,1.9-2.9,4.4-2.9,7.1s1.1,5.2,2.9,7.1
				c1.9,1.9,4.4,2.9,7.1,2.9s5.2-1.1,7.1-2.9c1.9-1.9,2.9-4.4,2.9-7.1C485.5,399.2,484.4,396.6,482.5,394.7z"/>
		</g>
	</g>
</g>
<g>
	<g>
		<path d="M178.3,307.6c0-4.2-3.4-7.5-7.5-7.5h-8.6v-8.6c0-4.2-3.4-7.5-7.5-7.5c-4.2,0-7.5,3.4-7.5,7.5v8.6h-8.6
			c-4.2,0-7.5,3.4-7.5,7.5c0,4.2,3.4,7.5,7.5,7.5h8.6v8.6c0,4.2,3.4,7.5,7.5,7.5c4.2,0,7.5-3.4,7.5-7.5v-8.6h8.6
			C174.9,315.2,178.3,311.8,178.3,307.6z"/>
	</g>
	<g>
		<path d="M267.4,315.2h8.6v8.6c0,4.2,3.4,7.5,7.5,7.5c4.2,0,7.5-3.4,7.5-7.5v-8.6h8.6c4.2,0,7.5-3.4,7.5-7.5c0-4.2-3.4-7.5-7.5-7.5
			H291v-8.6c0-4.2-3.4-7.5-7.5-7.5c-4.2,0-7.5,3.4-7.5,7.5v8.6h-8.6c-4.2,0-7.5,3.4-7.5,7.5C259.8,311.8,263.2,315.2,267.4,315.2z"
			/>
		<path d="M419.9,525.5l29.1-17.1h23.7c0.1,0,0.1,0,0.2,0l30.4,17.1H419.9z M456,170.3h9.1v323H456V170.3z M418.5,41.5h84.1
			l21.3,113.7H397.2L418.5,41.5z M396.7,525.5h-65.4V388.1c0-18,14.7-32.7,32.7-32.7c18,0,32.7,14.7,32.7,32.7V525.5z M122,460.1h25
			c4.2,0,7.5-3.4,7.5-7.5c0-4.2-3.4-7.5-7.5-7.5h-25v-56.9c0-20.9-13.5-38.7-32.2-45.2v-59.5c0-22.5,18.3-40.8,40.8-40.8h177.1
			c22.5,0,40.8,18.3,40.8,40.8v59.5c-18.7,6.5-32.2,24.3-32.2,45.2V445H182.5c-4.2,0-7.5,3.4-7.5,7.5c0,4.2,3.4,7.5,7.5,7.5h133.7
			v65.4H122V460.1z M41.5,388.1c0-18,14.7-32.7,32.7-32.7c18,0,32.7,14.7,32.7,32.7v137.4H41.5V388.1z M535.7,526.5l-55.5-31.3
			V170.3H533c4.7,0,8.3-4.4,7.4-8.9L516.3,32.5c-0.7-3.6-3.8-6.2-7.4-6.2h-96.6c-3.6,0-6.7,2.6-7.4,6.2l-24.2,128.8
			c-0.9,4.6,2.8,8.9,7.4,8.9h24.7v25.2h-0.5c-4.2,0-7.5,3.4-7.5,7.5c0,4.2,3.4,7.5,7.5,7.5h0.5v24.7c0,4.2,3.4,7.5,7.5,7.5
			c4.2,0,7.5-3.4,7.5-7.5v-24.7h0.5c4.2,0,7.5-3.4,7.5-7.5c0-4.2-3.4-7.5-7.5-7.5h-0.5v-25.2H441v325.3l-29.2,17.2V388.1
			c0-26.4-21.4-47.8-47.8-47.8c-0.2,0-0.3,0-0.5,0v-56.9c0-30.8-25.1-55.9-55.9-55.9H130.5c-30.8,0-55.9,25.1-55.9,55.9v56.9
			c-0.2,0-0.3,0-0.5,0c-26.4,0-47.8,21.4-47.8,47.8V533c0,4.2,3.4,7.5,7.5,7.5H532c3.3,0,6.4-2.3,7.3-5.5
			C540.2,531.8,538.7,528.1,535.7,526.5z"/>
	</g>
	<g>
		<path d="M130,41.5h178.1v129.8H130V41.5z M122.5,186.4h193.2c4.2,0,7.5-3.4,7.5-7.5V33.9c0-4.2-3.4-7.5-7.5-7.5H122.5
			c-4.2,0-7.5,3.4-7.5,7.5v144.9C114.9,183,118.3,186.4,122.5,186.4z"/>
		<path d="M154.2,65.6H284v81.5H154.2V65.6z M291.5,50.5H146.6c-4.2,0-7.5,3.4-7.5,7.5v96.6c0,4.2,3.4,7.5,7.5,7.5h144.9
			c4.2,0,7.5-3.4,7.5-7.5V58.1C299.1,53.9,295.7,50.5,291.5,50.5z"/>
		<path d="M198,91.6c0.8-0.5,1.9-0.7,3-0.7c3.5,0,8.3,1.9,13.8,5.6c2.5,1.7,5.8,1.7,8.4,0c7.4-4.9,13.6-6.7,16.9-5
			c2.5,1.3,3.6,4.7,3.6,6.7c0,4.3-11.3,14.9-24.7,23.4c-13.3-8.5-24.6-19.1-24.6-23.4C194.4,96.3,195.5,92.9,198,91.6z M215.2,137
			c2.3,1.4,5.3,1.4,7.6,0c8.4-4.9,35.9-22.3,35.9-38.7c0-6.9-3.6-15.8-11.6-20c-5.5-2.9-14.7-4.5-28.2,3.1
			c-13.5-7.7-22.7-6.1-28.2-3.1c-8,4.3-11.6,13.1-11.6,20C179.3,114.7,206.8,132.1,215.2,137z"/>
	</g>
</g>
</svg>
