<?xml version="1.0" encoding="utf-8"?>
<!-- Generator: Adobe Illustrator 23.0.1, SVG Export Plug-In . SVG Version: 6.00 Build 0)  -->
<svg version="1.1" id="Layer_1" xmlns="http://www.w3.org/2000/svg" xmlns:xlink="http://www.w3.org/1999/xlink" x="0px" y="0px"
	 viewBox="0 0 512 512" style="enable-background:new 0 0 512 512;" xml:space="preserve">
<style type="text/css">
	.st0{display:none;}
	.st1{display:inline;}
</style>
<g class="st0">
	<path class="st1" d="M485.6,495.6H26.4c-5.5,0-10-4.5-10-10v-10h479.1v10C495.6,491.1,491.1,495.6,485.6,495.6z"/>
	<path class="st1" d="M206.1,495.6H46.4c-5.5,0-10-4.5-10-10V206.1c0-5.5,4.5-10,10-10h159.7c5.5,0,10,4.5,10,10v279.5
		C216.1,491.1,211.6,495.6,206.1,495.6z M56.4,475.6h139.7V216.1H56.4V475.6z"/>
	<path class="st1" d="M465.6,495.6H305.9c-5.5,0-10-4.5-10-10V86.3c0-5.5,4.5-10,10-10h159.7c5.5,0,10,4.5,10,10v399.3
		C475.6,491.1,471.1,495.6,465.6,495.6z M315.9,475.6h139.7V96.3H315.9V475.6z"/>
	<path class="st1" d="M136.2,176.1h-20V26.4c0-5.5,4.5-10,10-10h269.5c5.5,0,10,4.5,10,10v29.9h-20v-20H136.2V176.1z"/>
	<path class="st1" d="M76.3,236h20v179.7h-20V236z"/>
	<path class="st1" d="M116.3,236h20v179.7h-20V236z"/>
	<path class="st1" d="M156.2,236h20v179.7h-20V236z"/>
	<path class="st1" d="M305.9,126.2h109.8v20H305.9V126.2z"/>
	<path class="st1" d="M305.9,176.1h109.8v20H305.9V176.1z"/>
	<path class="st1" d="M305.9,226.1h109.8v20H305.9V226.1z"/>
	<path class="st1" d="M305.9,276h109.8v20H305.9V276z"/>
	<path class="st1" d="M305.9,325.9h109.8v20H305.9V325.9z"/>
	<path class="st1" d="M305.9,375.8h109.8v20H305.9V375.8z"/>
	<path class="st1" d="M166.2,66.3h20v29.9h-20C166.2,96.3,166.2,66.3,166.2,66.3z"/>
	<path class="st1" d="M166.2,126.2h20v29.9h-20C166.2,156.2,166.2,126.2,166.2,126.2z"/>
	<path class="st1" d="M206.1,126.2h20v29.9h-20V126.2z"/>
	<path class="st1" d="M206.1,66.3h20v29.9h-20V66.3z"/>
	<path class="st1" d="M246,66.3h20v29.9h-20V66.3z"/>
	<path class="st1" d="M246,126.2h20v29.9h-20V126.2z"/>
	<path class="st1" d="M246,186.1h20V216h-20V186.1z"/>
	<path class="st1" d="M246,246h20v30h-20V246z"/>
	<path class="st1" d="M246,305.9h20v29.9h-20V305.9z"/>
	<path class="st1" d="M246,365.8h20v29.9h-20V365.8z"/>
	<path class="st1" d="M405.7,485.6h-20v-39.9h-29.9v39.9h-20v-49.9c0-5.5,4.5-10,10-10h49.9c5.5,0,10,4.5,10,10V485.6z"/>
	<path class="st1" d="M176.1,485.6h-20v-29.9H96.3v29.9h-20v-39.9c0-5.5,4.5-10,10-10h79.9c5.5,0,10,4.5,10,10L176.1,485.6
		L176.1,485.6z"/>
</g>
<path class="st0" d="M486.2,476.9H445V403c0-5.2-4.2-9.4-9.4-9.4c-5.2,0-9.4,4.2-9.4,9.4v73.9H314V299c0-5.2-4.2-9.4-9.4-9.4h-97.3
	c-5.2,0-9.4,4.2-9.4,9.4v177.8H85.7V265.4h3.6c2.5,0,4.9-1,6.6-2.7L256,102.5l160.1,160.1c1.8,1.8,4.1,2.7,6.6,2.7h3.6v70.2
	c0,5.2,4.2,9.4,9.4,9.4c5.2,0,9.4-4.2,9.4-9.4v-70.2h41.2c3.8,0,7.2-2.3,8.6-5.8s0.6-7.5-2-10.2L262.6,19.2c-3.7-3.7-9.6-3.7-13.2,0
	l-88,88c-3.7,3.7-3.7,9.6,0,13.2c3.7,3.7,9.6,3.7,13.2,0L256,39l207.6,207.6h-37l-164-164c-3.7-3.7-9.6-3.7-13.2,0l-164,164h-37
	l73.9-73.9c3.7-3.7,3.7-9.6,0-13.2c-3.7-3.7-9.6-3.7-13.2,0l-89.8,89.8c-2.7,2.7-3.5,6.7-2,10.2c1.4,3.5,4.9,5.8,8.6,5.8H67v211.5
	H25.8c-5.2,0-9.4,4.2-9.4,9.4s4.2,9.4,9.4,9.4h50.5h131h97.3h131h50.5c5.2,0,9.4-4.2,9.4-9.4S491.4,476.9,486.2,476.9z M216.7,476.9
	V308.4h78.6v168.4h-78.6L216.7,476.9L216.7,476.9z"/>
<g class="st0">
	<path class="st1" d="M438.7,72c-6.5-7.6-15.9-12-25.9-12H380V49.8c0-12.7-10.3-23-23-23H135c-12.7,0-23,10.3-23,23V60H79.2
		c-10,0-19.4,4.4-25.9,12c-6.4,7.5-9.2,17.4-7.6,27.1c8.6,52.9,41.9,99.7,89.2,125.3c4.3,10.4,9.2,20.2,14.7,29.4
		c17.4,29.3,39,49.5,62.8,59.3c2.4,24.4-13.8,47.5-38.3,53c-0.1,0-0.1,0-0.1,0c-4.8,1.1-8.3,5.4-8.3,10.5v49.8h-20.1
		c-17.9,0-32.5,14.6-32.5,32.5v25.7c0,6,4.9,10.8,10.8,10.8h245.4c6,0,10.8-4.9,10.8-10.8V459c0-17.9-14.6-32.5-32.5-32.5h-20.1
		v-49.8c0-5.1-3.6-9.4-8.3-10.5h-0.1c-24.6-5.5-40.9-28.9-38.2-53.5c23.4-9.9,44.6-30,61.8-58.8c5.4-9.2,10.3-19,14.7-29.4
		c47.3-25.6,80.6-72.4,89.2-125.3C447.9,89.4,445.1,79.5,438.7,72z M67.2,95.7c-0.6-3.5,0.4-6.9,2.7-9.6c2.3-2.8,5.7-4.3,9.4-4.3
		H112v20c0,31.3,4,61.6,11.6,89.3C93.8,167.5,73.3,133.4,67.2,95.7z M358.4,459v14.8H134.7V459c0-6,4.9-10.8,10.8-10.8h202
		C353.5,448.2,358.4,453.1,358.4,459z M187.4,426.5v-38.9h118.3v38.9H187.4z M277.3,365.9h-61.5c2.7-3,5.1-6.2,7.3-9.6
		c7.2-11.3,11-24.1,11.2-37.2c3.9,0.5,7.7,0.8,11.7,0.8c4.3,0,8.5-0.3,12.7-0.9C259,336.5,265.8,353.2,277.3,365.9z M246,298.2
		c-28.9,0-56.6-19.7-77.8-55.4c-22.3-37.5-34.6-87.6-34.6-141v-52c0-0.7,0.6-1.3,1.3-1.3H357c0.7,0,1.3,0.6,1.3,1.3v51.9
		c0,53.4-12.3,103.5-34.6,141C302.6,278.5,274.9,298.2,246,298.2z M424.9,95.7c-6.1,37.7-26.6,71.9-56.4,95.4
		c7.6-27.7,11.6-58,11.6-89.3v-20h32.8c3.6,0,7,1.6,9.4,4.3C424.5,88.8,425.4,92.2,424.9,95.7z"/>
	<path class="st1" d="M303.1,130.8l-32.7-4.8l-14.6-29.7c-1.8-3.7-5.6-6-9.7-6c-4.1,0-7.9,2.3-9.7,6L221.8,126l-32.7,4.8
		c-4.1,0.6-7.5,3.5-8.8,7.4s-0.2,8.2,2.7,11.1l23.7,23.1L201,205c-0.7,4.1,1,8.2,4.3,10.6c3.3,2.4,7.8,2.7,11.4,0.8L246,201
		l29.3,15.4c1.6,0.8,3.3,1.2,5,1.2c2.2,0,4.5-0.7,6.4-2.1c3.3-2.4,5-6.5,4.3-10.6l-5.6-32.6l23.7-23.1c3-2.9,4-7.2,2.7-11.1
		C310.6,134.3,307.2,131.4,303.1,130.8z M266.2,160.9c-2.6,2.5-3.7,6.1-3.1,9.6l2.8,16.6l-14.9-7.8c-1.6-0.8-3.3-1.2-5-1.2
		s-3.5,0.4-5,1.2l-14.9,7.8l2.8-16.6c0.6-3.5-0.6-7.1-3.1-9.6l-12-11.7l16.6-2.4c3.5-0.5,6.6-2.7,8.2-5.9l7.4-15.1l7.4,15.1
		c1.6,3.2,4.6,5.4,8.2,5.9l16.6,2.4L266.2,160.9z"/>
</g>
<g>
	<g>
		<path d="M486.9,97.3c-29-29-82.5-50.9-119.5-60.8c-28.8-7.7-61.1-12.1-88.8-12.1c-17.4,0-32.6,1.7-45.1,5
			c-3.1,0.8-5.6,3.3-6.4,6.4c-2.7,10-5,20.3-6.9,31c-0.1,0.3-0.1,0.6-0.2,0.9c-7.4,41.9-8.8,87.9-3.7,127.3
			c-22.9,1.5-47.3,5.5-69.8,11.5c-37,9.9-90.4,31.8-119.5,60.8c-2.3,2.3-3.2,5.6-2.4,8.8c2.9,10.8,6.4,21.9,10.5,32.9c0,0,0,0,0,0
			c14,38.1,34.4,76.5,57.4,107.2c24.9,33.3,64.2,73.1,109.6,73.1c6.5,0,13-0.9,19.3-2.5c27.7-7.4,49.5-30.6,63-67
			c10.3-27.7,15.7-62.6,16-101.4c3.6,0.5,7.3,0.8,10.9,0.8c45.4,0,84.7-39.8,109.6-73.1c29.7-39.7,55.1-92.1,67.9-140.2
			C490.1,102.9,489.2,99.6,486.9,97.3z M217,469.3c-4.8,1.3-9.7,1.9-14.6,1.9c-29.6,0-63.4-23.4-95.1-65.8
			c-20.8-27.8-39.4-62.2-52.7-96.7c4.9-3.8,12.7-9.7,20.8-15.2c4.2-2.8,5.3-8.4,2.4-12.6c-2.8-4.2-8.4-5.3-12.6-2.4
			c-6.3,4.2-12.3,8.7-17.1,12.3c-1.6-4.7-3-9.5-4.4-14.2c22.6-20.3,64.9-41.1,107.5-52.5c21.9-5.9,45.7-9.7,68-11
			c2.9,15.2,6.8,28.9,11.7,41c0,0.1,0,0.1,0.1,0.2c0.5,1.2,0.9,2.3,1.4,3.5c0,0.1,0.1,0.1,0.1,0.2c2.5,5.8,5.2,11.3,8.2,16.3
			c0,0.1,0.1,0.1,0.1,0.2c0,0,0,0,0,0.1c0.2,0.3,0.3,0.6,0.5,0.9c0.4,0.6,0.7,1.2,1.1,1.8c0.2,0.4,0.5,0.8,0.7,1.1
			c0.5,0.8,1,1.6,1.6,2.4c0.3,0.4,0.5,0.8,0.8,1.1c0.5,0.8,1.1,1.6,1.6,2.3c0.2,0.3,0.5,0.6,0.7,0.9c0.6,0.8,1.2,1.6,1.8,2.4
			c0.1,0.1,0.1,0.2,0.2,0.2c1.2,1.5,2.4,3,3.7,4.4c-5.5,6.9-13.9,11-22.8,11c-10.4,0-20-5.6-25.2-14.5c-2.5-4.3-8.1-5.8-12.4-3.3
			c-4.3,2.5-5.8,8.1-3.3,12.4c8.4,14.6,24.1,23.6,40.9,23.6c14,0,27.3-6.3,36.1-16.8c3,2.2,6,4.1,9.2,5.9c0.1,0.1,0.3,0.1,0.4,0.2
			c0.8,0.4,1.7,0.9,2.5,1.3c0.2,0.1,0.5,0.2,0.7,0.3c0.8,0.4,1.6,0.8,2.5,1.1c0.1,0,0.2,0.1,0.3,0.1
			C282.9,381.4,265.9,456.2,217,469.3z M406.7,235.3c-31.7,42.4-65.5,65.8-95.1,65.8c-4.9,0-9.9-0.6-14.6-1.9
			c-0.9-0.2-1.7-0.5-2.6-0.8c0,0-0.1,0-0.1,0c-39.3-12.6-53.5-65.7-58.5-96.2c0-0.1,0-0.1,0-0.2c-0.1-0.5-0.2-1.1-0.3-1.6
			c-5.9-37.4-5.2-82.2,1.5-123.5c6.1-0.8,15.9-2,25.6-2.7c5-0.4,8.8-4.7,8.4-9.7c-0.4-5-4.7-8.8-9.7-8.4c-7.5,0.5-14.9,1.3-20.9,2.1
			c0.9-4.2,1.8-8.3,2.9-12.4c10-2.1,21.8-3.2,35.3-3.2c26.1,0,56.8,4.2,84.1,11.5c42.6,11.4,84.9,32.2,107.5,52.5
			C457.5,151.1,434,198.9,406.7,235.3z"/>
	</g>
</g>
<g>
	<g>
		<path d="M429.7,165.2c-8.4-14.6-24.1-23.6-40.9-23.6c-16.8,0-32.5,9.1-40.9,23.6c-2.5,4.3-1,9.9,3.3,12.4c4.3,2.5,9.9,1,12.4-3.3
			c5.2-9,14.8-14.5,25.2-14.5c10.4,0,20,5.6,25.2,14.5c1.7,2.9,4.7,4.5,7.9,4.5c1.5,0,3.1-0.4,4.5-1.2
			C430.7,175.1,432.2,169.5,429.7,165.2z"/>
	</g>
</g>
<g>
	<g>
		<path d="M294.8,114.9c-14.6-8.4-32.7-8.4-47.3,0c-4.3,2.5-5.8,8.1-3.3,12.4c2.5,4.3,8.1,5.8,12.4,3.3c9-5.2,20.1-5.2,29.1,0
			c9,5.2,14.5,14.8,14.5,25.2c0,5,4.1,9.1,9.1,9.1s9.1-4.1,9.1-9.1C318.5,139,309.4,123.3,294.8,114.9z"/>
	</g>
</g>
<g>
	<g>
		<path d="M354.4,230.5c-3.5-3.5-9.3-3.5-12.8,0c-7.3,7.3-18.1,10.2-28.1,7.5c-10-2.7-17.9-10.6-20.6-20.6
			c-1.3-4.8-6.3-7.7-11.1-6.4c-4.8,1.3-7.7,6.3-6.4,11.1c4.4,16.3,17.2,29.1,33.4,33.4c4,1.1,8.1,1.6,12.2,1.6
			c12.4,0,24.5-4.9,33.5-13.8C357.9,239.8,357.9,234,354.4,230.5z"/>
	</g>
</g>
<g>
	<g>
		<path d="M145.7,298L145.7,298c-5,0-9.1,4.1-9.1,9.1c0,10.4-5.6,20-14.5,25.2c-9,5.2-20.1,5.2-29.1,0c-4.3-2.5-9.9-1-12.4,3.3
			c-2.5,4.3-1,9.9,3.3,12.4c7.3,4.2,15.5,6.3,23.6,6.3s16.3-2.1,23.6-6.3c14.6-8.4,23.6-24.1,23.6-40.9
			C154.8,302.1,150.7,298,145.7,298z"/>
	</g>
</g>
<g>
	<g>
		<path d="M241.3,401.9c-11.9-11.9-29.4-16.6-45.6-12.2c-16.3,4.4-29.1,17.2-33.4,33.4c-1.3,4.8,1.6,9.8,6.4,11.1
			c0.8,0.2,1.6,0.3,2.4,0.3c4,0,7.7-2.7,8.8-6.7c2.7-10,10.6-17.9,20.6-20.6c10-2.7,20.8,0.2,28.1,7.5c3.5,3.5,9.3,3.5,12.8,0
			C244.9,411.2,244.9,405.4,241.3,401.9z"/>
	</g>
</g>
<g>
	<g>
		<path d="M289.7,56.4c-0.2,0-0.5-0.1-0.7-0.1c-5-0.7-9.6,2.7-10.3,7.7c-0.7,5,2.7,9.6,7.7,10.3l0.4,0.1c0.5,0.1,1,0.1,1.4,0.1
			c4.4,0,8.2-3.2,9-7.6C298,61.9,294.7,57.2,289.7,56.4z"/>
	</g>
</g>
<g>
	<g>
		<path d="M101.7,269.9c-1.8-4.7-7-7.1-11.7-5.3c-0.2,0.1-0.5,0.2-0.7,0.3c-4.7,1.9-6.9,7.1-5.1,11.8c1.4,3.6,4.8,5.7,8.4,5.7
			c1.1,0,2.3-0.2,3.4-0.6l0.4-0.1C101.1,279.8,103.5,274.6,101.7,269.9z"/>
	</g>
</g>
</svg>
