<?xml version="1.0" encoding="iso-8859-1"?>
<!-- Generator: Adobe Illustrator 23.0.1, SVG Export Plug-In . SVG Version: 6.00 Build 0)  -->
<svg version="1.1" id="Layer_1" xmlns="http://www.w3.org/2000/svg" xmlns:xlink="http://www.w3.org/1999/xlink" x="0px" y="0px"
	 viewBox="-49 141 512 512" style="enable-background:new -49 141 512 512;" xml:space="preserve">
<g style="display:none;">
	<g style="display:inline;">
		<g>
			<circle cx="280.561" cy="381.776" r="8.797"/>
		</g>
	</g>
	<g style="display:inline;">
		<g>
			<path d="M282.07,419.469c-4.802-0.713-9.279,2.607-9.991,7.413c-2.404,16.235-16.127,29.699-36.709,36.019
				c-21.999,6.755-52.534,4.491-71.161-15.794c-3.287-3.579-8.851-3.814-12.429-0.53c-3.579,3.287-3.815,8.851-0.53,12.429
				c10.783,11.743,25.429,19.746,42.355,23.145c5.977,1.2,12.177,1.795,18.417,1.795c9.64,0,19.374-1.421,28.513-4.227
				c27.227-8.36,45.525-27.148,48.948-50.26C290.195,424.654,286.876,420.181,282.07,419.469z"/>
		</g>
	</g>
	<g style="display:inline;">
		<g>
			<path d="M404.338,341.672c-15.989-18.536-38.057-30.554-64.621-35.381c25.432-17.163,47.368-34.243,63.009-49.147
				c23.848-22.723,31.844-38.692,25.167-50.25c-7.43-12.873-28.878-12.785-67.502,0.282c-32.634,11.04-73.288,30.215-114.472,53.993
				c-7.114,4.106-14.161,8.311-21.056,12.549c-5.114-14.442-1.741-30.939,9.542-45.244c8.451-10.715,10.338-24.324,4.925-35.518
				c-5.674-11.732-18.127-18.757-33.333-18.788h-0.413c-53.667,0-106.159,21.175-147.806,59.625
				C16.08,272.29-9.449,323.253-14.104,377.292c-5.601,65.08,15.202,126.952,58.575,174.219
				c42.607,46.432,103.011,73.061,165.724,73.061c33.763,0,65.458-6.177,94.204-18.362c26.285-11.141,49.627-27.05,69.378-47.285
				c18.313-18.763,32.751-40.362,42.914-64.199c9.671-22.682,14.955-46.719,15.282-69.511
				C432.449,392.07,422.893,363.181,404.338,341.672z M225.892,293.796c9.311-5.872,19.008-11.723,28.824-17.39
				c38.078-21.985,75.997-40.094,106.771-50.991c33.877-11.995,47.747-11.212,50.981-9.663c-0.28,2.047-2.822,11.155-25.053,31.627
				c-18.563,17.095-45.671,37.199-76.329,56.607c-9.692,6.138-19.778,12.237-29.978,18.128
				c-14.062,8.116-28.113,15.705-41.904,22.654c-2.752-8.031-6.278-15.824-10.57-23.259c-4.16-7.206-8.985-13.97-14.379-20.229
				C218.072,298.778,221.955,296.276,225.892,293.796z M223.265,352.572c-24.84,11.78-47.633,20.761-65.835,25.97
				c-0.947-4.551-2.614-8.949-4.977-13.047c-2.241-3.884-5.051-7.356-8.3-10.35c13.626-13.151,32.806-28.387,55.389-43.974
				c5.243,5.86,9.891,12.269,13.854,19.133C217.495,337.404,220.794,344.87,223.265,352.572z M414.381,424.962
				c-1.254,87.537-79.677,182.016-204.186,182.016c-57.798,0-113.476-24.552-152.76-67.362
				C17.433,496.024-1.747,438.911,3.425,378.801c8.884-103.134,99.573-187.039,202.16-187.039h0.395
				c8.416,0.018,14.799,3.244,17.511,8.854c2.494,5.157,1.41,11.498-2.9,16.962c-15.855,20.101-19.831,44.823-10.873,65.667
				c-4.716,3.038-9.351,6.09-13.83,9.117c-0.021,0.014-0.042,0.028-0.062,0.042c-27.973,18.876-51.595,37.651-67.312,53.451
				c-11.92-4.074-25.017-2.886-36.148,3.539c-18.277,10.557-42.275,59.754-46.899,69.509c-1.239,2.611-1.115,5.664,0.33,8.167
				c1.445,2.503,4.027,4.136,6.907,4.37c4.862,0.394,18.669,1.39,34.036,1.39c18.648,0,39.592-1.467,49.611-7.255
				c10.854-6.265,18.377-16.734,20.982-28.768c21.573-5.663,49.759-16.741,80.286-31.614c17.104-8.325,34.694-17.692,52.285-27.844
				c8.923-5.153,17.744-10.466,26.318-15.824c0.052,0.003,0.102,0.011,0.154,0.012C389.698,323.643,415.078,376.343,414.381,424.962
				z M140.708,389.139c-0.563,8.847-5.479,16.771-13.153,21.202c-8.319,4.806-36.899,5.453-60.365,4.38
				c10.798-20.852,25.647-45.278,33.975-50.088c7.863-4.539,17.369-4.738,25.434-0.53c4.433,2.308,8.103,5.83,10.615,10.185
				C139.827,378.818,141.035,383.953,140.708,389.139z"/>
		</g>
	</g>
	<g style="display:inline;">
		<g>
			<path d="M139.811,228.569c-19.403,0-35.188,15.785-35.188,35.188s15.785,35.188,35.188,35.188s35.188-15.785,35.188-35.188
				S159.213,228.569,139.811,228.569z M139.811,281.35c-9.701,0-17.594-7.893-17.594-17.594s7.893-17.594,17.594-17.594
				s17.594,7.893,17.594,17.594S149.512,281.35,139.811,281.35z"/>
		</g>
	</g>
	<g style="display:inline;">
		<g>
			<path d="M95.826,464.951c-19.403,0-35.188,15.785-35.188,35.188c0,19.402,15.785,35.188,35.188,35.188
				s35.188-15.785,35.188-35.188C131.014,480.737,115.228,464.951,95.826,464.951z M95.826,517.733
				c-9.701,0-17.594-7.893-17.594-17.594c0-9.701,7.893-17.594,17.594-17.594s17.594,7.893,17.594,17.594
				C113.42,509.84,105.527,517.733,95.826,517.733z"/>
		</g>
	</g>
	<g style="display:inline;">
		<g>
			<path d="M183.795,517.733c-19.403,0-35.188,15.785-35.188,35.188s15.785,35.188,35.188,35.188s35.188-15.785,35.188-35.188
				S203.198,517.733,183.795,517.733z M183.795,570.515c-9.701,0-17.594-7.893-17.594-17.594s7.893-17.594,17.594-17.594
				s17.594,7.893,17.594,17.594S193.496,570.515,183.795,570.515z"/>
		</g>
	</g>
	<g style="display:inline;">
		<g>
			<path d="M289.358,500.139c-19.403,0-35.188,15.785-35.188,35.188s15.785,35.188,35.188,35.188
				c19.403,0,35.188-15.785,35.188-35.188S308.761,500.139,289.358,500.139z M289.358,552.921c-9.701,0-17.594-7.893-17.594-17.594
				c0-9.701,7.893-17.594,17.594-17.594c9.701,0,17.594,7.893,17.594,17.594C306.952,545.028,299.06,552.921,289.358,552.921z"/>
		</g>
	</g>
	<g style="display:inline;">
		<g>
			<path d="M359.734,412.17c-19.403,0-35.188,15.785-35.188,35.188s15.785,35.188,35.188,35.188
				c19.403,0,35.188-15.785,35.188-35.188S379.137,412.17,359.734,412.17z M359.734,464.951c-9.701,0-17.594-7.893-17.594-17.594
				c0-9.701,7.893-17.594,17.594-17.594c9.701,0,17.594,7.893,17.594,17.594C377.328,457.059,369.435,464.951,359.734,464.951z"/>
		</g>
	</g>
</g>
<g style="display:none;">
	<g style="display:inline;">
		<g>
			<path d="M382.591,492.579h-12.528c-8.786,0.008-17.45,2.053-25.312,5.976c-11.439,5.686-24.881,5.686-36.32,0
				c-4.563-2.239-9.406-3.854-14.4-4.8l15.592-121.176h16.968c4.418,0,8-3.582,8-8v-32c0-4.418-3.582-8-8-8h-32v-24
				c0-2.122-0.844-4.156-2.344-5.656l-37.656-37.656v-24.848l12.128-9.696l20.712,41.432l14.32-7.152l-22.256-44.504l9.896-7.92
				h29.2c4.418,0,8-3.582,8-8v-32c0-4.418-3.582-8-8-8h-80c-39.744,0.048-71.952,32.256-72,72c0,4.418,3.582,8,8,8h16v20.688
				l-21.656,21.656c-1.5,1.5-2.344,3.534-2.344,5.656v40h-16v-64c-0.012-0.991-0.21-1.97-0.584-2.888
				c-0.146-0.311-0.312-0.613-0.496-0.904c-0.192-0.419-0.417-0.823-0.672-1.208l-30.248-37.8v-53.2c0-4.418-3.582-8-8-8h-48
				c-4.418,0-8,3.582-8,8v53.2l-30.248,37.8c-0.255,0.385-0.48,0.789-0.672,1.208c-0.184,0.291-0.35,0.593-0.496,0.904
				c-0.374,0.918-0.572,1.897-0.584,2.888v64h-32c-4.418,0-8,3.582-8,8v32c0,4.418,3.582,8,8,8H7.559l31.096,241.024
				c0.515,3.99,3.913,6.977,7.936,6.976h188.32c9.073,10.17,22.051,15.99,35.68,16h12.528c8.786-0.008,17.45-2.053,25.312-5.976
				c11.439-5.686,24.881-5.686,36.32,0c7.862,3.923,16.526,5.968,25.312,5.976h12.528c26.499-0.026,47.974-21.501,48-48v-48
				C430.565,514.08,409.09,492.605,382.591,492.579z M294.591,172.579h16v16h-16V172.579z M318.591,340.579v16h-112v-16H318.591z
				 M183.159,220.579c4.013-27.535,27.606-47.965,55.432-48h40v20.16l-34.808,27.84H183.159z M238.591,236.579v16h-32v-16H238.591z
				 M182.591,287.891l19.312-19.312h41.376l35.312,35.312v20.688h-96V287.891z M174.591,340.579h16v56
				c-0.017,3.047,1.699,5.838,4.424,7.2l48,24c2.341,1.154,4.115,3.205,4.92,5.688c0.829,2.665,0.541,5.552-0.8,8
				c-2.302,4.619-7.912,6.497-12.531,4.194c-0.007-0.003-0.014-0.007-0.021-0.01l-32.48-16.24c-3.97-1.94-8.76-0.294-10.7,3.676
				c-0.531,1.088-0.809,2.282-0.812,3.492v80c0,8.837-7.163,16-16,16v-72h-16v72h-16v-72h-16v72h-16v-72h-16v72
				c-8.837,0-16-7.163-16-16v-176H174.591z M70.591,172.579h32v40h-32V172.579z M66.431,228.579h40.32l19.2,24h-78.72
				L66.431,228.579z M38.591,268.579h96v56h-96V268.579z M-1.409,356.579v-16h64v16H-1.409z M222.591,540.579v48
				c0.014,5.454,0.961,10.865,2.8,16H53.623l-29.936-232h38.904v144c0,17.673,14.327,32,32,32h80c17.673,0,32-14.327,32-32v-67.056
				l20.896,10.448c12.627,6.232,27.915,1.048,34.147-11.579c0.026-0.052,0.051-0.105,0.077-0.157
				c3.099-6.143,3.626-13.268,1.464-19.8c-2.132-6.535-6.802-11.937-12.96-14.992l-43.624-21.808v-19.056h86.904l-15.488,120h-7.416
				C244.092,492.605,222.617,514.08,222.591,540.579z M414.591,588.579c0,17.673-14.327,32-32,32h-12.528
				c-6.301-0.009-12.514-1.476-18.152-4.288c-15.95-7.925-34.69-7.925-50.64,0c-5.638,2.812-11.851,4.279-18.152,4.288h-12.528
				c-17.673,0-32-14.327-32-32v-12.32c8.773,7.927,20.176,12.317,32,12.32h12.528c8.786-0.008,17.45-2.053,25.312-5.976
				c11.439-5.686,24.881-5.686,36.32,0c7.862,3.923,16.526,5.968,25.312,5.976h12.528c11.824-0.003,23.227-4.393,32-12.32V588.579z
				 M382.591,572.579h-12.528c-6.301-0.009-12.514-1.476-18.152-4.288c-15.95-7.925-34.69-7.925-50.64,0
				c-5.638,2.812-11.851,4.279-18.152,4.288h-12.528c-17.673,0-32-14.327-32-32c0-17.673,14.327-32,32-32h12.528
				c6.301,0.009,12.514,1.476,18.152,4.288c15.951,7.92,34.689,7.92,50.64,0c5.638-2.812,11.851-4.279,18.152-4.288h12.528
				c17.673,0,32,14.327,32,32C414.591,558.252,400.264,572.579,382.591,572.579z"/>
		</g>
	</g>
	<g style="display:inline;">
		<g>
			<rect x="374.591" y="524.579" width="16" height="16"/>
		</g>
	</g>
	<g style="display:inline;">
		<g>
			<rect x="294.591" y="524.579" width="16" height="16"/>
		</g>
	</g>
	<g style="display:inline;">
		<g>
			<rect x="262.591" y="532.579" width="16" height="16"/>
		</g>
	</g>
	<g style="display:inline;">
		<g>
			<rect x="342.591" y="532.579" width="16" height="16"/>
		</g>
	</g>
</g>
<g style="display:none;">
	<g style="display:inline;">
		<g>
			<path d="M151.561,337.583c-4.25-4.652-10.301-7.376-16.6-7.474c-12.671-0.163-23.153,9.939-23.368,22.6
				c-0.069,4.081,3.184,7.445,7.264,7.514c0.043,0.001,0.085,0.001,0.128,0.001c4.023,0,7.318-3.227,7.386-7.266
				c0.076-4.522,3.793-8.15,8.358-8.071c2.279,0.035,4.381,0.981,5.919,2.664c2.753,3.014,7.429,3.225,10.441,0.472
				C154.103,345.272,154.314,340.597,151.561,337.583z"/>
		</g>
	</g>
	<g style="display:inline;">
		<g>
			<path d="M190.879,361.669c-2.265-5.325-6.675-9.527-12.101-11.531c-10.912-4.025-23.076,1.569-27.119,12.468
				c-1.42,3.827,0.532,8.08,4.358,9.5c0.847,0.314,1.715,0.463,2.569,0.463c3.002,0,5.824-1.843,6.93-4.822
				c1.214-3.273,4.873-4.948,8.144-3.741c1.645,0.607,2.929,1.832,3.616,3.448c1.597,3.755,5.939,5.507,9.693,3.909
				C190.726,369.764,192.475,365.425,190.879,361.669z"/>
		</g>
	</g>
	<g style="display:inline;">
		<g>
			<path d="M238.51,296.216c-2.889-2.884-7.569-2.878-10.451,0.011l-6.966,6.98c-2.883,2.889-2.878,7.569,0.011,10.451
				c1.442,1.44,3.331,2.159,5.219,2.159c1.894,0,3.788-0.723,5.231-2.17l6.966-6.98C241.404,303.778,241.399,299.098,238.51,296.216
				z"/>
		</g>
	</g>
	<g style="display:inline;">
		<g>
			<path d="M192.532,391.622h-9.85c-4.082,0-7.39,3.309-7.39,7.39s3.308,7.39,7.39,7.39h9.85c4.082,0,7.39-3.309,7.39-7.39
				S196.615,391.622,192.532,391.622z"/>
		</g>
	</g>
	<g style="display:inline;">
		<g>
			<path d="M268.054,391.622h-9.851c-4.082,0-7.39,3.309-7.39,7.39s3.309,7.39,7.39,7.39h9.851c4.081,0,7.39-3.309,7.39-7.39
				S272.136,391.622,268.054,391.622z"/>
		</g>
	</g>
	<g style="display:inline;">
		<g>
			<path d="M460.763,524.875l-1.924-10.388c-1.227-6.637-7.023-11.455-13.781-11.455c-0.848,0-1.704,0.078-2.545,0.233
				l-39.178,7.197l17.742-11.861c4.65-3.108,7-8.667,5.986-14.182c-0.282-1.511-0.81-2.96-1.575-4.317l-5.369-9.508
				c-1.84-3.266-4.977-5.693-8.598-6.655c-1.774-0.473-3.628-0.578-5.437-0.343c1.976-10.904,2.995-22.04,2.995-33.377
				c0-5.03-3.025-9.359-7.346-11.281c5.646-13.428,6.031-28.802,0.45-42.881c-0.452-1.145-1.124-2.167-1.994-3.038
				c-0.863-0.863-1.873-1.53-3.019-1.99c-6.688-2.663-13.716-4.013-20.891-4.013c-0.917,0-1.831,0.024-2.741,0.067
				c-1.024-20.626-18.095-37.093-38.935-37.093c-2.744,0-5.42,0.292-8.005,0.836c1.795-10.74,0.738-21.976-3.445-32.526
				c-0.449-1.16-1.124-2.2-2.042-3.132c-0.883-0.883-1.918-1.564-3.067-2.02c-7.204-2.869-14.775-4.324-22.505-4.324
				c-11.643,0-22.78,3.273-32.396,9.359c-3.513-10.176-9.306-19.729-17.399-27.841c-2.371-2.375-5.524-3.683-8.879-3.683
				s-6.508,1.309-8.882,3.685L192.2,306.207c-6.622-5.906-15.335-9.437-24.793-9.437c-2.146,0-4.313,0.188-6.44,0.559
				c-7.708,1.342-14.802,5.115-20.24,10.641c-6.973-3.365-14.962-4.513-22.639-3.177c-1.689,0.294-3.328,0.707-4.918,1.212v-27.635
				c0-19.031-15.296-34.542-34.217-34.869v-15.673c5.792-1.002,10.214-6.05,10.214-12.124v-35.511
				c0-6.791-5.525-12.317-12.317-12.317H16.753c-6.792,0-12.317,5.526-12.317,12.317v35.511c0,6.074,4.422,11.122,10.214,12.124
				v15.671c-18.921,0.326-34.216,15.837-34.216,34.869v215.691c-14.755,13.325-23.94,31.918-23.94,52.478
				c0,40.445,35.498,73.35,79.131,73.35l295.792-0.087c10.096-0.004,19.591-4.441,26.049-12.172
				c6.291-7.526,8.964-17.302,7.424-26.943l59.079,10.617c0.818,0.147,1.655,0.222,2.486,0.222c2.946,0,5.769-0.905,8.16-2.613
				c3.073-2.195,5.153-5.594,5.708-9.321l1.6-10.737c0.231-1.538,0.205-3.087-0.076-4.606c-1.017-5.49-5.198-9.847-10.652-11.096
				l-20.824-4.777l39.139-7.19c3.691-0.678,6.894-2.75,9.018-5.835C460.65,532.27,461.443,528.552,460.763,524.875z
				 M376.278,381.794c4.449,0,8.823,0.705,13.028,2.093c3.758,11.444,2.351,23.788-3.533,33.984h-19.908l6.353-6.367
				c2.883-2.889,2.877-7.569-0.013-10.452c-2.89-2.883-7.57-2.878-10.451,0.012l-3.361,3.369c-1.576-5.188-4.327-9.833-7.943-13.643
				C357.785,384.965,366.789,381.794,376.278,381.794z M334.601,344.769c13.347,0,24.204,10.89,24.204,24.276
				c0,0.248-0.012,0.494-0.019,0.74c-7.79,2.533-14.971,6.765-21.095,12.513c-0.975-0.37-1.963-0.712-2.978-0.993
				c-2.162-11.678-10.032-21.039-20.428-25.411C318.601,349.209,326.088,344.769,334.601,344.769z M295.537,303.602
				c5.019,0,9.952,0.812,14.706,2.418c3.82,11.359,3.04,23.561-1.828,34.13c-4.002,3.645-7.248,8.109-9.467,13.126
				c-1.319,0.077-2.639,0.223-3.942,0.449c-5.791,1.008-11.191,3.521-15.71,7.165c-1.541-2.818-3.428-5.418-5.59-7.76l16.947-16.986
				c2.883-2.889,2.877-7.569-0.013-10.451c-2.889-2.883-7.569-2.878-10.452,0.012l-18.523,18.565
				c-3.525-1.666-7.334-2.825-11.338-3.367c1.729-8.819,6.009-17.128,12.628-23.764C271.666,308.41,283.237,303.602,295.537,303.602
				z M238.908,417.871h-6.406c-1.079-2.745-3.746-4.691-6.875-4.691s-5.796,1.947-6.875,4.691h-7.536
				c1.75-2.85,1.396-6.626-1.074-9.091c-2.889-2.883-7.569-2.878-10.452,0.011l-6.965,6.98c-0.626,0.627-1.107,1.341-1.46,2.1
				h-15.041c-5.633-8.645-9.071-18.848-9.478-29.825h117.244c-0.407,10.977-3.845,21.18-9.478,29.825h-15.652
				c-0.353-0.759-0.836-1.474-1.46-2.101l-6.965-6.98c-2.884-2.888-7.562-2.896-10.451-0.012
				C237.511,411.244,237.157,415.021,238.908,417.871z M221.721,373.266c2.786-10.324,12.203-17.941,23.363-17.941
				c11.161,0,20.578,7.619,23.364,17.941L221.721,373.266L221.721,373.266z M236.833,282.396
				c7.03,7.597,11.677,16.617,13.957,26.098c-3.773,4.1-6.907,8.631-9.38,13.452c-1.122-0.688-2.438-1.091-3.85-1.091h-9.848
				c-4.081,0-7.39,3.309-7.39,7.39s3.309,7.39,7.39,7.39h8.639c-0.486,2.041-0.863,4.106-1.137,6.187
				c-2.934,0.771-5.737,1.868-8.36,3.265c-4.926-8.501-13.083-14.836-22.747-17.377c-0.003-0.021-0.007-0.041-0.011-0.062
				c-0.579-3.344-1.59-6.517-2.969-9.466L236.833,282.396z M103.24,349.081c-0.434-1.212-0.762-2.456-0.977-3.703
				c-2.12-12.219,6.118-23.894,18.359-26.025c1.291-0.225,2.602-0.339,3.897-0.339c4.869,0,9.522,1.553,13.454,4.49
				c1.627,1.216,3.684,1.708,5.687,1.361c2.002-0.348,3.773-1.504,4.896-3.197c3.469-5.233,8.778-8.706,14.946-9.78
				c1.294-0.226,2.608-0.339,3.906-0.339c10.949,0,20.255,7.834,22.125,18.628c0.215,1.237,0.325,2.525,0.327,3.831
				c0.007,3.825,2.932,7.014,6.744,7.349c8.262,0.726,15.296,5.926,18.556,13.251c-4.365,5.239-7.391,11.636-8.54,18.659h-42.146
				c-5.24,0-9.736,3.235-11.611,7.813c-9.272-6.315-20.2-9.718-31.652-9.718c-7.174,0-14.203,1.351-20.896,4.015
				c-1.135,0.453-2.15,1.122-3.015,1.987c-0.877,0.877-1.55,1.905-1.991,3.032c-1.701,4.289-2.835,8.699-3.448,13.136
				c-2.649-3.015-4.515-6.764-5.244-10.972c-1.738-10.027,3.511-20.011,12.76-24.279C102.854,356.677,104.53,352.684,103.24,349.081
				z M125.271,415.85l2.016,2.021h-17.749c-3.985-9.245-4.59-19.767-1.355-29.637c4.211-1.39,8.583-2.094,13.028-2.094
				c11.136,0,21.611,4.352,29.495,12.254c1.048,1.051,2.025,2.153,2.942,3.291c1.252,5.67,3.177,11.086,5.656,16.185h-11.137
				l-12.432-12.461c-2.884-2.888-7.564-2.896-10.451-0.012C122.394,408.282,122.388,412.961,125.271,415.85z M93.799,417.871H67.453
				c1.175-7.159,5.481-13.261,11.458-16.859c3.538,4.741,8.157,8.574,13.478,11.17C92.765,414.099,93.227,416,93.799,417.871z
				 M19.217,182.656h55.171v30.585H19.217V182.656z M64.174,228.02v15.463H29.432V228.02H64.174z M-4.783,308.338h47.99
				c4.082,0,7.39-3.309,7.39-7.39c0-4.081-3.308-7.39-7.39-7.39h-47.99v-15.19c0-11.085,8.99-20.103,20.041-20.103h63.09
				c11.052,0,20.042,9.018,20.042,20.103v15.19H84.591c-4.082,0-7.39,3.309-7.39,7.39c0,4.081,3.308,7.39,7.39,7.39H98.39v6.56
				c-8.467,8.302-12.865,20.476-10.693,32.999c0.004,0.025,0.009,0.05,0.013,0.076c-11.856,8.134-18.173,22.595-15.657,37.113
				c0.147,0.847,0.331,1.681,0.532,2.506c-3.692,2.036-7.008,4.665-9.85,7.741H-4.783V308.338z M-4.784,410.111L-4.784,410.111
				h58.938c-0.784,2.491-1.338,5.083-1.608,7.761H51.3c-6.802,0-12.337,5.539-12.337,12.347c0,11.735,1.091,23.254,3.204,34.525
				c-2.123-0.17-4.301-0.262-6.516-0.262c-8.937,0-17.453,1.418-23.975,3.994C1.7,472.414-1.058,478.008-1.66,481.878
				c-1.057,0.526-2.096,1.082-3.125,1.65C-4.784,483.529-4.784,410.111-4.784,410.111z M88.796,500.897
				c2.661,2.129,4.288,3.939,5.231,5.245c-0.089,0.001-0.181,0.002-0.275,0.002c-4.183,0-11.698-1.686-20.244-6.417
				c-3.182-1.763-6.113-3.754-8.478-5.757c-2.757-2.336-6.8-2.334-9.555,0.001c-2.365,2.005-5.295,3.996-8.474,5.754
				c-8.548,4.733-16.063,6.419-20.245,6.419c-0.096,0-0.187-0.001-0.277-0.002c0.942-1.306,2.569-3.117,5.231-5.247
				c2.326-1.862,3.307-4.941,2.486-7.805c-0.822-2.865-3.283-4.957-6.244-5.304c-7.212-0.845-11.772-2.681-13.907-4.017
				c2.675-1.666,9.439-4.507,21.61-4.507c10.08,0,17.448,2.119,20.981,4.104c2.248,1.261,4.988,1.261,7.235,0.001
				c3.535-1.985,10.904-4.104,20.984-4.104c12.172,0,18.935,2.842,21.609,4.507c-2.134,1.337-6.696,3.172-13.909,4.017
				c-2.961,0.348-5.423,2.439-6.244,5.305C85.487,495.957,86.468,499.035,88.796,500.897z M74.013,590.846l0.254,1.37
				c0.879,4.746,2.732,9.103,5.322,12.891H35.626c-35.483,0-64.351-26.274-64.351-58.57c0-22.071,13.488-41.321,33.348-51.303
				c2.281,1.703,5.125,3.171,8.499,4.355c-1.338,2.285-2.27,4.743-2.49,7.305c-0.292,3.407,0.751,6.643,2.938,9.113
				c2.89,3.264,7.326,4.918,13.185,4.918c7.808,0,18.053-3.091,27.404-8.268c2.153-1.191,4.189-2.45,6.094-3.764
				c1.905,1.314,3.94,2.572,6.094,3.765c9.351,5.176,19.596,8.266,27.404,8.267h0.001c5.857,0,10.293-1.654,13.182-4.917
				c2.188-2.469,3.232-5.705,2.939-9.114c-0.22-2.563-1.152-5.02-2.49-7.305c3.374-1.185,6.219-2.654,8.5-4.355
				c15.751,7.916,27.488,21.663,31.672,38.023l-52.268,19.856C79.989,558.926,71.041,574.795,74.013,590.846z M346.123,598.151
				c-3.644,4.363-9.007,6.866-14.712,6.868l-7.757,0.003l-4.846-26.166c-0.744-4.013-4.598-6.667-8.613-5.921
				c-4.012,0.743-6.664,4.599-5.921,8.612l4.349,23.48l-25.428,0.01l-3.276-17.694c-0.744-4.013-4.599-6.664-8.613-5.921
				c-4.012,0.743-6.664,4.599-5.921,8.612l2.779,15.009l-59.146,0.023l-4.452-24.031c-0.745-4.013-4.598-6.664-8.613-5.92
				c-4.013,0.743-6.664,4.6-5.921,8.613l3.954,21.344l-86.361,0.034c-0.002,0-0.004,0-0.006,0c-9.235,0-17.149-6.553-18.822-15.584
				l-0.254-1.37c-1.67-9.022,3.373-17.946,11.992-21.222l29.045-11.034l2.164,11.678c0.659,3.558,3.765,6.045,7.257,6.045
				c0.447,0,0.901-0.041,1.356-0.125c4.012-0.744,6.663-4.6,5.919-8.613l-2.654-14.32l43.114-16.379
				c3.815-1.449,5.734-5.718,4.284-9.533c-1.449-3.816-5.723-5.734-9.532-4.284l-20.063,7.622
				c-5.628-19.927-20.088-36.573-39.262-46.109c-0.602-3.871-3.36-9.464-13.336-13.404c-6.522-2.576-15.038-3.994-23.975-3.994
				c-6.151,0-12.024,0.679-17.209,1.916v-4.464c0-4.081-3.308-7.39-7.39-7.39c-1.725,0-3.308,0.595-4.566,1.586
				c-1.166-7.708-1.818-15.538-1.926-23.478h240.711c4.082,0,7.39-3.309,7.39-7.39s-3.308-7.39-7.39-7.39h-3.024
				c4.706-9.692,7.365-20.559,7.365-32.043c0-6.52-4.989-11.891-11.346-12.501c2.768-2.61,6.223-4.37,10.073-5.041
				c1.128-0.196,2.273-0.296,3.404-0.296c9.541,0,17.649,6.826,19.278,16.228c0.188,1.089,0.285,2.212,0.286,3.34
				c0.005,3.827,2.931,7.018,6.744,7.353c8.832,0.775,16.057,7.418,17.572,16.152c0.402,2.322,0.352,4.614-0.051,6.808h-7.929
				c-4.082,0-7.39,3.309-7.39,7.39s3.308,7.39,7.39,7.39h57.438c-0.183,13.557-1.929,26.799-5.186,39.647l-40.051,23.643
				c-2.45-8.525-8.143-15.757-15.987-20.148c-8.798-4.924-19.254-5.693-28.684-2.112l-82.485,31.336
				c-3.816,1.449-5.734,5.718-4.284,9.533c1.449,3.816,5.722,5.732,9.532,4.284l10.867-4.128l3.374,18.216
				c0.659,3.558,3.765,6.046,7.258,6.046c0.446,0,0.9-0.041,1.355-0.125c4.012-0.743,6.664-4.599,5.921-8.612l-3.864-20.86
				l57.573-21.872c5.335-2.026,11.245-1.591,16.218,1.192c4.964,2.778,8.403,7.567,9.436,13.136l14.951,80.716
				C351.256,588.11,349.761,593.798,346.123,598.151z M372.491,540.305c-3.448,0.634-5.975,3.601-6.053,7.106
				c-0.077,3.505,2.32,6.581,5.736,7.365l55.022,12.62l-1.375,9.222l-63.786-11.463l-9.971-53.834l55.558-32.797l4.628,8.195
				l-46.862,31.326c-2.914,1.948-4.059,5.675-2.74,8.922c1.317,3.248,4.737,5.124,8.183,4.49l73.612-13.522l1.64,8.849
				L372.491,540.305z"/>
		</g>
	</g>
</g>
<g>
	<path d="M113.487,376.388h-5.075v-41.155c0-4.878-3.953-8.832-8.832-8.832h-0.758v-84.199c0-3.344-1.889-6.403-4.882-7.899
		L25.59,200.12c-2.737-1.368-5.988-1.224-8.593,0.386c-2.605,1.609-4.19,4.451-4.19,7.513v118.382h-0.758
		c-4.879,0-8.832,3.954-8.832,8.832v41.155h-5.084c-4.879,0-8.832,3.954-8.832,8.832v231.834c0,4.878,3.953,8.832,8.832,8.832
		h115.351c4.879,0,8.832-3.954,8.832-8.832V385.22C122.319,380.343,118.366,376.388,113.487,376.388z M30.474,222.312l50.684,25.349
		v78.741H30.474C30.474,326.401,30.474,222.312,30.474,222.312z M20.885,344.065h69.864v32.323H20.885V344.065z M104.655,608.222
		H6.968v-214.17h97.687V608.222z"/>
	<path d="M423.227,520.896H136.357c-4.879,0-8.832,3.954-8.832,8.832c0,4.878,3.953,8.832,8.832,8.832h272.817l-2.02,4.198
		c-11.094,23.053-34.794,37.95-60.377,37.95H136.357c-4.879,0-8.832,3.954-8.832,8.832s3.953,8.832,8.832,8.832h210.421
		c32.329,0,62.277-18.823,76.294-47.954l8.114-16.86c1.318-2.737,1.136-5.959-0.48-8.529S426.264,520.896,423.227,520.896z"/>
	<path d="M115.964,227.522c32.932-30.488,75.801-47.28,120.714-47.28c97.993,0,177.717,79.724,177.717,177.717
		c0,52.831-23.28,102.577-63.869,136.481c-3.745,3.128-4.244,8.697-1.116,12.44c1.746,2.091,4.255,3.17,6.783,3.17
		c1.996,0,4.005-0.674,5.657-2.054c44.621-37.27,70.21-91.957,70.21-150.039c-0.001-107.732-87.649-195.38-195.382-195.38
		c-49.376,0-96.507,18.461-132.715,51.983c-3.579,3.314-3.794,8.902-0.48,12.481C106.796,230.621,112.383,230.836,115.964,227.522z"
		/>
	<path d="M236.674,216.977c77.741,0,140.988,63.247,140.988,140.988s-63.247,140.988-140.988,140.988
		c-34.95,0-68.474-12.881-94.4-36.267c-3.62-3.267-9.205-2.98-12.474,0.642c-3.267,3.621-2.979,9.207,0.643,12.473
		c29.176,26.321,66.903,40.816,106.232,40.816c87.481,0,158.652-71.171,158.652-158.652s-71.171-158.652-158.652-158.652
		c-50.243,0-98.039,24.188-127.855,64.704c-2.892,3.928-2.05,9.457,1.878,12.348c3.928,2.89,9.455,2.05,12.348-1.878
		C149.546,238.477,192.025,216.977,236.674,216.977z"/>
	<path d="M333.837,288.387L172.66,449.564c-3.449,3.449-3.449,9.042,0,12.49c1.725,1.724,3.986,2.587,6.246,2.587
		c2.26,0,4.521-0.862,6.246-2.587l161.175-161.177c3.449-3.449,3.449-9.042,0-12.49
		C342.877,284.938,337.286,284.938,333.837,288.387z"/>
	<path d="M221.741,450.654c-3.449,3.449-3.449,9.042,0,12.49c1.725,1.724,3.986,2.587,6.246,2.587c2.26,0,4.521-0.862,6.246-2.587
		l121.011-121.011c3.449-3.449,3.449-9.042,0-12.49c-3.45-3.449-9.042-3.449-12.491,0L221.741,450.654z"/>
</g>
</svg>
