<?xml version="1.0" standalone="no"?>
<!DOCTYPE svg PUBLIC "-//W3C//DTD SVG 20010904//EN"
 "http://www.w3.org/TR/2001/REC-SVG-20010904/DTD/svg10.dtd">
<svg version="1.0" xmlns="http://www.w3.org/2000/svg"
 width="85.000000pt" height="85.000000pt" viewBox="0 0 85.000000 85.000000"
 preserveAspectRatio="xMidYMid meet">
<metadata>
Created by potrace 1.11, written by Peter Selinger 2001-2013
</metadata>
<g transform="translate(0.000000,85.000000) scale(0.100000,-0.100000)"
fill="#000000" stroke="none">
<path d="M199 700 c-13 -9 -7 -52 11 -80 20 -31 22 -186 2 -199 -7 -4 -15 -24
-17 -44 l-5 -37 114 0 c123 0 135 5 117 53 -13 33 -35 48 -62 43 -13 -3 -33
-5 -44 -5 -11 -1 -27 -6 -35 -11 -23 -15 5 -30 58 -30 23 0 42 -4 42 -10 0 -5
-32 -9 -75 -9 -41 1 -75 5 -75 10 0 5 6 9 13 9 10 0 12 29 12 123 0 67 -4 128
-8 135 -6 9 9 12 65 11 71 -2 72 -2 21 -8 -28 -4 -55 -10 -60 -14 -11 -11 17
-27 50 -27 15 0 27 -3 28 -7 0 -5 1 -35 2 -68 0 -33 6 -63 11 -67 6 -4 31 -8
57 -8 25 0 50 -5 56 -11 8 -8 13 -8 17 0 5 7 54 11 135 11 138 0 147 3 157 53
2 15 -3 33 -14 46 -16 20 -28 21 -192 23 -179 2 -203 7 -174 39 8 9 16 29 17
45 l2 29 -109 5 c-59 3 -112 3 -117 0z m266 -185 c1 -17 -5 -20 -35 -20 -35 0
-40 8 -31 43 1 2 15 2 33 0 23 -2 32 -8 33 -23z m278 5 c5 -19 0 -20 -112 -20
-65 0 -120 3 -124 6 -3 3 -3 12 0 20 4 11 30 14 118 14 104 0 113 -1 118 -20z"/>
<path d="M243 290 c-59 -6 -56 -4 -71 -48 -9 -26 -8 -34 1 -38 7 -2 71 -3 143
-2 l129 3 1 27 c1 15 -7 34 -16 43 -18 17 -102 23 -187 15z m163 -49 c-3 -5
-49 -9 -101 -10 -59 0 -93 3 -90 9 4 6 49 10 101 10 54 0 93 -4 90 -9z"/>
<path d="M377 103 c-14 -13 -6 -23 16 -23 14 0 24 6 24 15 0 15 -28 21 -40 8z"/>
<path d="M720 95 c-11 -13 -7 -15 25 -15 32 0 36 2 25 15 -7 8 -18 15 -25 15
-7 0 -18 -7 -25 -15z"/>
</g>
</svg>
